<svg width="73" height="29" viewBox="0 0 73 29" fill="none" xmlns="http://www.w3.org/2000/svg">
<path d="M72.0815 13.7663C72.6472 14.5141 72.9729 15.4882 72.9984 16.5082C73.0239 17.5281 72.7473 18.5249 72.22 19.3138C71.74 20.0201 71.1357 20.5835 70.4526 20.9616L64.5842 24.2075L60.439 24.9947L6.19002 24.5725L2.79006 23.7559C1.99594 23.565 1.28164 23.0379 0.771783 22.2665C0.26193 21.4951 -0.0110966 20.5285 0.000345566 19.5352L0.0349783 16.6353C0.0379853 16.4173 0.0974853 16.2061 0.20485 16.0324C0.312214 15.8587 0.461862 15.7315 0.632092 15.6692L0.870937 15.5783C0.870937 15.5783 1.07157 12.7357 2.46881 12.0921C7.561 9.39896 10.9311 8.53399 19.4543 8.09711L26.6519 2.81936C26.6519 2.81936 29.5575 0.539664 32.2648 0.240591C34.9721 -0.0584813 41.1021 -0.0614144 43.9097 0.136501C47.207 0.369602 51.3903 2.21095 53.7239 3.63155C55.551 4.74427 59.9494 7.4931 59.9494 7.4931L62.4369 8.00475C62.8119 8.02674 69.6823 8.54132 70.4717 8.68939C70.7589 8.74668 71.0276 8.90019 71.2482 9.13301C71.4688 9.36582 71.6328 9.6689 71.7221 10.0088C71.9191 10.8093 72.0803 13.7487 72.0803 13.7487" fill="#FF725E"/>
<path d="M51.0823 3.78273C49.9096 3.06291 46.764 2.0704 45.0049 1.66578C43.2458 1.26115 39.6703 1.20544 38.242 1.24942C36.8137 1.2934 32.8441 1.37843 30.7518 2.10705C29.677 2.48236 27.9465 3.58189 26.9302 4.50256C26.572 4.82215 25.0386 6.30138 24.6958 6.6371L22.0327 9.68939L54.7545 8.42127C54.7545 8.42127 54.9432 7.02121 54.3545 6.21489C53.7657 5.40857 51.0823 3.78273 51.0823 3.78273Z" fill="#263238"/>
<path d="M2.54045 15.4068L0.885254 15.3775C0.949742 14.8292 1.16829 13.3719 1.87646 12.5554L4.06786 12.5949C4.15884 12.5965 4.24786 12.6276 4.32585 12.6852C4.40384 12.7427 4.46801 12.8246 4.51183 12.9225C4.55564 13.0204 4.57754 13.1308 4.57528 13.2424C4.57302 13.3541 4.54669 13.463 4.49897 13.5581L4.1001 14.3542C3.93668 14.6805 3.70701 14.949 3.4336 15.1336C3.16019 15.3181 2.85242 15.4123 2.54045 15.4068Z" fill="#FAFAFA"/>
<path d="M2.7409 15.2865C2.91287 14.3913 3.13021 13.2143 3.74524 12.5891H4.06768C4.15866 12.5907 4.24768 12.6218 4.32567 12.6794C4.40366 12.737 4.46783 12.819 4.51164 12.917C4.55546 13.015 4.57736 13.1255 4.5751 13.2373C4.57284 13.3491 4.54651 13.4581 4.49879 13.5533L4.09992 14.3502C3.95239 14.6458 3.75013 14.8944 3.5096 15.0757C3.26908 15.257 2.9971 15.366 2.71582 15.3936L2.7409 15.2865Z" fill="#E0E0E0"/>
<g opacity="0.7">
<path opacity="0.7" d="M18.8024 24.6957C18.9779 23.6504 19.0158 22.5773 18.9147 21.5173C18.4871 17.0063 16.0808 13.7605 12.4455 13.6959C9.28204 13.6402 6.66907 16.0665 6.13525 20.56C5.97906 21.9014 6.01625 23.266 6.24512 24.5916L18.8024 24.6957Z" fill="black"/>
</g>
<g opacity="0.7">
<path opacity="0.7" d="M64.5769 24.2266C64.5769 24.0609 64.5614 23.8909 64.559 23.7149C64.4945 18.0223 61.3835 14.0786 57.6838 14.0126C56.0583 13.986 54.4904 14.7521 53.3244 16.1428C52.1584 17.5335 51.4895 19.4353 51.4643 21.4308C51.4488 22.6975 51.3998 23.8894 51.5216 24.9406L60.4317 25.0139L64.5769 24.2266Z" fill="black"/>
</g>
<path d="M52.2574 21.4439C52.2421 22.7408 52.5405 24.014 53.1147 25.1027C53.689 26.1914 54.5133 27.0465 55.4834 27.5601C56.4536 28.0737 57.526 28.2225 58.5651 27.9879C59.6041 27.7532 60.5632 27.1456 61.3209 26.2418C62.0787 25.338 62.6011 24.1787 62.8222 22.9104C63.0432 21.6422 62.9529 20.3219 62.5627 19.1167C62.1725 17.9114 61.4999 16.8752 60.63 16.1392C59.7601 15.4032 58.732 15.0003 57.6756 14.9816C56.259 14.9566 54.8924 15.6233 53.8763 16.8352C52.8602 18.0472 52.2778 19.7049 52.2574 21.4439Z" fill="#263238"/>
<path d="M52.2574 21.4278V21.4439C52.2473 22.3051 52.3754 23.1603 52.6345 23.9606C52.8936 24.761 53.2786 25.4908 53.7675 26.1085C54.2564 26.7263 54.8396 27.2197 55.4838 27.5607C56.128 27.9018 56.8207 28.0837 57.5222 28.0961C58.2237 28.1085 58.9203 27.9512 59.5722 27.6331C60.2242 27.315 60.8188 26.8424 61.3219 26.2423C61.8251 25.6421 62.2271 24.9262 62.5049 24.1353C62.7827 23.3445 62.9309 22.4942 62.941 21.633C62.941 21.633 62.941 21.6228 62.941 21.6169L52.2574 21.4278Z" fill="#263238"/>
<path d="M53.848 21.4733C53.8384 22.3837 54.0488 23.2772 54.4527 24.0408C54.8566 24.8044 55.4359 25.4038 56.1172 25.7634C56.7986 26.123 57.5515 26.2266 58.2808 26.061C59.0101 25.8955 59.683 25.4682 60.2146 24.8333C60.7462 24.1984 61.1125 23.3842 61.2672 22.4938C61.422 21.6034 61.3582 20.6766 61.0841 19.8307C60.8099 18.9847 60.3376 18.2575 59.7269 17.7409C59.1161 17.2244 58.3944 16.9417 57.6528 16.9286C57.1598 16.9199 56.6702 17.0305 56.2121 17.2543C55.7539 17.4781 55.3362 17.8105 54.9829 18.2326C54.6295 18.6547 54.3473 19.1582 54.1526 19.7143C53.9579 20.2703 53.8544 20.8681 53.848 21.4733Z" fill="#FAFAFA"/>
<path d="M57.6505 16.9344C57.1575 16.9259 56.668 17.0367 56.21 17.2605C55.7519 17.4844 55.3343 17.8168 54.9809 18.2389C54.6276 18.6609 54.3454 19.1643 54.1507 19.7203C53.9559 20.2763 53.8522 20.874 53.8457 21.4791L61.3466 21.6111C61.3544 21.006 61.2649 20.4049 61.0833 19.8423C60.9017 19.2797 60.6315 18.7666 60.2882 18.3322C59.945 17.8979 59.5353 17.5509 59.0827 17.311C58.6301 17.0712 58.1434 16.9432 57.6505 16.9344Z" fill="#E0E0E0"/>
<path d="M55.3147 21.4983C55.3081 22.0529 55.4357 22.5975 55.6813 23.0632C55.9268 23.5288 56.2794 23.8946 56.6943 24.1143C57.1092 24.334 57.5679 24.3976 58.0123 24.2973C58.4568 24.1969 58.8669 23.937 59.191 23.5504C59.5151 23.1639 59.7385 22.668 59.833 22.1256C59.9275 21.5831 59.8889 21.0184 59.7219 20.5029C59.555 19.9875 59.2673 19.5443 58.8952 19.2296C58.5231 18.9149 58.0833 18.7427 57.6315 18.7348C57.0258 18.7242 56.4414 19.0094 56.007 19.5276C55.5725 20.0458 55.3235 20.7547 55.3147 21.4983Z" fill="#263238"/>
<path d="M12.7889 28.2631C15.7368 28.1006 18.0193 25.0353 17.8869 21.4165C17.7546 17.7977 15.2576 14.9958 12.3098 15.1582C9.36189 15.3206 7.07943 18.3859 7.21174 22.0047C7.34406 25.6235 9.84104 28.4255 12.7889 28.2631Z" fill="#263238"/>
<path d="M7.21247 21.5964C7.21247 21.5964 7.21247 21.6082 7.21247 21.614C7.19204 23.3532 7.73524 25.0311 8.72257 26.2787C9.7099 27.5262 11.0605 28.2411 12.4772 28.2662C13.8939 28.2913 15.2607 27.6245 16.277 26.4124C17.2932 25.2003 17.8756 23.5423 17.896 21.8031V21.7856L7.21247 21.5964Z" fill="#263238"/>
<path d="M8.80655 21.6419C8.79576 22.5526 9.00522 23.4468 9.40845 24.2114C9.81168 24.976 10.3906 25.5766 11.0719 25.9373C11.7532 26.298 12.5063 26.4025 13.236 26.2377C13.9657 26.0729 14.6392 25.6461 15.1713 25.0113C15.7035 24.3765 16.0703 23.5623 16.2254 22.6716C16.3805 21.7809 16.317 20.8537 16.0428 20.0073C15.7687 19.161 15.2962 18.4334 14.6852 17.9167C14.0742 17.4 13.352 17.1173 12.6102 17.1045C11.6157 17.0872 10.6564 17.5555 9.9431 18.4064C9.22983 19.2573 8.82102 20.4211 8.80655 21.6419Z" fill="#FAFAFA"/>
<path d="M12.6067 17.1045C11.6128 17.0885 10.6544 17.5573 9.94192 18.408C9.22943 19.2587 8.82111 20.4218 8.80664 21.6418L16.3076 21.7752C16.3147 21.1702 16.2246 20.5693 16.0424 20.007C15.8602 19.4447 15.5895 18.932 15.2458 18.4982C14.9021 18.0644 14.4921 17.718 14.0392 17.4789C13.5864 17.2398 13.0996 17.1126 12.6067 17.1045Z" fill="#E0E0E0"/>
<path d="M10.2684 21.6682C10.2611 22.223 10.388 22.768 10.6331 23.2341C10.8782 23.7003 11.2304 24.0668 11.6452 24.2872C12.06 24.5076 12.5187 24.572 12.9633 24.4722C13.408 24.3725 13.8185 24.1131 14.143 23.7268C14.4675 23.3406 14.6913 22.8449 14.7863 22.3024C14.8812 21.76 14.8429 21.1951 14.6763 20.6794C14.5096 20.1636 14.2221 19.7201 13.8501 19.405C13.4781 19.0899 13.0383 18.9173 12.5864 18.9091C11.9811 18.8981 11.3969 19.1826 10.9623 19.6999C10.5277 20.2172 10.2781 20.9252 10.2684 21.6682Z" fill="#263238"/>
<g opacity="0.4">
<path opacity="0.4" d="M2.21821 20.2066C2.20985 20.9404 1.90651 21.5274 1.54226 21.5274C1.17801 21.5274 0.887813 20.9183 0.896172 20.1831C0.904532 19.4479 1.20787 18.8623 1.57331 18.8623C1.93875 18.8623 2.22657 19.4713 2.21821 20.2066Z" fill="black"/>
</g>
<path d="M72.0815 13.7663C72.0477 13.774 72.0133 13.7775 71.9788 13.7765L71.6827 13.7897C71.4259 13.7971 71.0545 13.8073 70.5971 13.8308C70.1397 13.8542 69.5928 13.8836 68.9885 13.9437C68.334 14.0035 67.6838 14.1211 67.0431 14.2955C66.7142 14.3905 66.394 14.5266 66.0877 14.7016C65.806 14.8747 65.5419 15.0877 65.3007 15.3364C64.823 15.7924 64.4648 16.2982 64.134 16.6955C63.8824 17.0181 63.602 17.3048 63.298 17.5502C63.2141 17.615 63.1267 17.6728 63.0365 17.7232C63.0062 17.7437 62.9741 17.7599 62.9409 17.7715C62.9409 17.7627 63.0687 17.6924 63.2813 17.5194C63.5772 17.265 63.8506 16.9731 64.0969 16.6485C64.4182 16.2483 64.7764 15.7337 65.2577 15.269C65.5019 15.014 65.7701 14.7959 66.0567 14.6195C66.3676 14.4399 66.693 14.3008 67.0276 14.2046C67.6725 14.0291 68.3271 13.9129 68.9861 13.8572C69.5928 13.8029 70.1397 13.7751 70.5983 13.7633C71.0569 13.7516 71.4343 13.7501 71.6863 13.7531H71.9824C72.0157 13.754 72.0489 13.7584 72.0815 13.7663Z" fill="#263238"/>
<g opacity="0.5">
<path opacity="0.5" d="M64.4099 24.3438C64.4307 24.3253 64.4522 24.3082 64.4744 24.2925C64.537 24.2419 64.5972 24.1871 64.6548 24.1283C64.8716 23.8955 65.0406 23.6032 65.148 23.275C65.3133 22.7525 65.3727 22.1886 65.3211 21.6316C65.2591 20.8935 65.1391 20.1644 64.9629 19.4545C64.7566 18.5924 64.468 17.7632 64.103 16.9843C63.6824 16.0909 63.1455 15.2881 62.5135 14.6078C61.8176 13.8529 60.999 13.2883 60.1119 12.9512C59.1548 12.6083 58.1516 12.5032 57.161 12.6419C56.1694 12.771 55.199 13.0808 54.2817 13.5611C53.4574 13.9598 52.7116 14.5694 52.0939 15.3491C51.4762 16.1289 51.0007 17.0611 50.699 18.0838C50.4398 18.9244 50.2533 19.7961 50.1425 20.6846C50.09 21.0921 50.0506 21.4821 50.0231 21.8574C49.991 22.2043 49.9791 22.5536 49.9873 22.9027C50.004 23.5536 50.1772 24.1107 50.4482 24.4288C50.646 24.6884 50.9138 24.8509 51.2018 24.8862C51.3021 24.8894 51.4023 24.8781 51.5004 24.8525L51.4263 24.8789C51.3522 24.8988 51.2764 24.9077 51.2006 24.9053C50.9069 24.8763 50.632 24.7162 50.4279 24.4552C50.1473 24.1327 49.9646 23.5639 49.9503 22.9056C49.9399 22.5538 49.9499 22.2016 49.9801 21.8515C50.0052 21.4806 50.0434 21.0892 50.0936 20.6787C50.2016 19.7844 50.3865 18.9067 50.6453 18.0603C50.7921 17.5897 50.9695 17.1343 51.1755 16.6984C51.3974 16.2373 51.6584 15.8063 51.9542 15.4127C52.6024 14.578 53.3871 13.9211 54.2566 13.4848C55.1802 12.9989 56.1581 12.6861 57.1574 12.5568C58.1597 12.4146 59.175 12.5213 60.143 12.8706C61.04 13.2124 61.8672 13.7852 62.5696 14.5506C63.2058 15.2382 63.7456 16.0495 64.1675 16.952C64.8295 18.393 65.2387 19.988 65.3689 21.6345C65.414 22.197 65.3472 22.7645 65.1742 23.2882C65.0623 23.6194 64.887 23.9126 64.6631 24.1429C64.5861 24.223 64.501 24.2905 64.4099 24.3438Z" fill="white"/>
</g>
<path d="M6.24725 20.561C6.18562 20.4815 6.1278 20.3977 6.07409 20.31C5.91724 20.0844 5.74373 19.877 5.5558 19.6907C4.9269 19.0852 4.19027 18.6713 3.40619 18.4828C2.61917 18.3015 1.81714 18.2384 1.01774 18.295C0.710823 18.3082 0.462425 18.3273 0.290456 18.3376C0.201619 18.3492 0.112167 18.3522 0.0229492 18.3464C0.0449413 18.3372 0.0678402 18.3318 0.09102 18.3302L0.288067 18.3009C0.458842 18.2788 0.707241 18.251 1.01535 18.2289C1.81858 18.1535 2.62639 18.2077 3.41813 18.3904C4.21546 18.5808 4.96187 19.0115 5.59043 19.6437C5.7778 19.8368 5.94758 20.0543 6.09678 20.2924C6.13961 20.3561 6.17948 20.4228 6.2162 20.492C6.22849 20.5136 6.2389 20.5367 6.24725 20.561Z" fill="#263238"/>
<path d="M6.21387 15.6836C6.21387 15.7099 4.93842 15.7085 3.36561 15.6836C1.7928 15.6587 0.518555 15.6119 0.518555 15.5856C0.518555 15.5593 1.794 15.5622 3.36681 15.5856C4.93962 15.609 6.21506 15.65 6.21387 15.6836Z" fill="#263238"/>
<g opacity="0.5">
<path opacity="0.5" d="M20.6699 24.0183C20.6685 23.9885 20.6685 23.9587 20.6699 23.9289C20.6699 23.8658 20.6699 23.7823 20.6699 23.6665C20.6699 23.5506 20.6699 23.407 20.6555 23.2384C20.6412 23.0698 20.6388 22.8748 20.6209 22.652C20.5278 21.4166 20.31 20.2002 19.9725 19.0308C19.7418 18.2219 19.4578 17.4375 19.1234 16.6852C18.7492 15.819 18.2926 15.0105 17.7631 14.2765C17.1739 13.4675 16.4431 12.833 15.6255 12.4205C14.7472 11.9781 13.8089 11.7424 12.8597 11.7256C12.38 11.7202 11.9007 11.7623 11.4266 11.8516C10.9667 11.9481 10.5136 12.0878 10.0711 12.2695C9.6452 12.4495 9.23184 12.6716 8.83512 12.9336L8.68943 13.0289L8.54851 13.133L8.26787 13.3382L8.00394 13.5625L7.87258 13.6739L7.75315 13.7956C7.11967 14.3938 6.56815 15.1124 6.11946 15.9243C5.7272 16.6312 5.4094 17.3962 5.17363 18.2011C4.98016 18.8666 4.84134 19.5541 4.75923 20.2535C4.73177 20.5629 4.70072 20.8502 4.69594 21.117C4.69116 21.3838 4.68519 21.6272 4.68639 21.85C4.68758 22.0729 4.70549 22.2635 4.71147 22.4365C4.71744 22.6094 4.73654 22.7473 4.74849 22.8616C4.76043 22.976 4.76759 23.0595 4.77476 23.1226C4.78192 23.1856 4.77476 23.212 4.77476 23.212C4.77476 23.212 4.77476 23.1827 4.76043 23.124C4.7461 23.0654 4.74132 22.9774 4.72699 22.8645C4.71266 22.7517 4.69116 22.608 4.6828 22.4394C4.67444 22.2708 4.64937 22.0758 4.65056 21.853C4.65175 21.6301 4.63862 21.3868 4.65056 21.1199C4.6625 20.8531 4.6828 20.5614 4.70908 20.2506C4.78649 19.5473 4.92255 18.8556 5.11511 18.1864C5.34868 17.374 5.66572 16.6015 6.05855 15.8877C6.5094 15.067 7.06414 14.3399 7.7018 13.734L7.8272 13.6124L7.95976 13.4995L8.22607 13.2708L8.50671 13.0611L8.64763 12.9556L8.79452 12.8603C9.19387 12.5942 9.61048 12.3691 10.0401 12.1874C10.4867 12.0031 10.9443 11.8614 11.4087 11.7637C11.8879 11.673 12.3724 11.6303 12.8573 11.6361C13.8151 11.6543 14.7615 11.8941 15.647 12.3428C16.4745 12.7596 17.2147 13.4006 17.8121 14.2178C18.3415 14.9624 18.7973 15.7813 19.1699 16.6573C19.5036 17.4126 19.7856 18.2007 20.0131 19.0132C20.3475 20.189 20.5586 21.4122 20.6412 22.6534C20.6738 23.1072 20.6833 23.5631 20.6699 24.0183Z" fill="white"/>
</g>
<path d="M62.443 8.09125C62.4459 8.12291 62.4459 8.15488 62.443 8.18654C62.4358 8.25984 62.4263 8.34927 62.4143 8.45922C62.388 8.69525 62.3486 9.03684 62.3236 9.46052C62.2872 9.95535 62.3057 10.4539 62.3785 10.9427C62.4724 11.539 62.7061 12.0888 63.0508 12.5245C63.4003 12.9544 63.8183 13.2913 64.2785 13.5141C64.6534 13.6948 65.0412 13.8323 65.4369 13.9246C65.7773 14.0082 66.0555 14.0595 66.2466 14.0976L66.4675 14.143C66.4936 14.1469 66.5192 14.1543 66.5439 14.165C66.5179 14.1704 66.4912 14.1704 66.4651 14.165L66.243 14.1372C66.0495 14.1093 65.7653 14.0683 65.4273 13.9906C65.0237 13.906 64.6281 13.7719 64.2463 13.5903C63.7743 13.3678 63.3458 13.0256 62.9887 12.5861C62.6371 12.1371 62.4004 11.5713 62.308 10.9588C62.2377 10.4627 62.2241 9.9569 62.2674 9.45612C62.3009 9.02951 62.3486 8.68792 62.3868 8.45336C62.4048 8.33607 62.4203 8.24518 62.431 8.18361C62.4317 8.15231 62.4357 8.12125 62.443 8.09125Z" fill="#263238"/>
<path d="M35.3015 11.6803C35.323 11.6738 35.3451 11.6713 35.3672 11.6729C35.4307 11.6691 35.4943 11.673 35.5571 11.6847C35.609 11.6924 35.659 11.7136 35.7037 11.7471C35.7484 11.7805 35.7868 11.8253 35.8162 11.8785C35.8563 11.9495 35.8803 12.0323 35.8858 12.1184C35.8912 12.2046 35.8779 12.291 35.8473 12.3688C35.8078 12.4602 35.753 12.5402 35.6865 12.6037C35.62 12.6672 35.5434 12.7127 35.4616 12.7373C35.2792 12.7856 35.0916 12.797 34.9062 12.771L33.6499 12.6829C33.5348 12.681 33.4209 12.6547 33.3131 12.6051C33.2589 12.5792 33.2097 12.5398 33.1686 12.4892C33.1275 12.4387 33.0954 12.3782 33.0743 12.3115C33.0583 12.2433 33.0558 12.1714 33.0668 12.1018C33.0778 12.0321 33.102 11.9667 33.1376 11.9108C33.2007 11.8044 33.2892 11.7248 33.3908 11.6832C33.5717 11.624 33.7592 11.6007 33.9461 11.6142C34.118 11.6142 34.2793 11.6142 34.4238 11.6289L35.1152 11.6656C35.2002 11.6633 35.2852 11.6687 35.3696 11.6817C35.3483 11.6895 35.3261 11.6929 35.3039 11.692C35.2609 11.692 35.1976 11.6994 35.1152 11.7008C34.9516 11.7008 34.7152 11.7008 34.4226 11.7008C34.2769 11.7008 34.1169 11.7008 33.9449 11.7008C33.7657 11.6912 33.5864 11.716 33.4134 11.7742C33.3259 11.8098 33.2497 11.8787 33.1961 11.9709C33.1675 12.0154 33.1479 12.0677 33.1389 12.1233C33.13 12.179 33.132 12.2365 33.1447 12.291C33.1626 12.3461 33.1897 12.3961 33.2243 12.4375C33.2588 12.479 33.3001 12.5111 33.3454 12.5317C33.4453 12.5764 33.5507 12.5997 33.6571 12.6007L34.9122 12.6961C35.0908 12.7233 35.2717 12.7158 35.4484 12.6741C35.5232 12.6543 35.5938 12.6152 35.6556 12.5596C35.7173 12.5039 35.7688 12.4329 35.8067 12.3512C35.8347 12.2835 35.8476 12.208 35.8443 12.1322C35.8409 12.0564 35.8214 11.9831 35.7876 11.9196C35.7625 11.8691 35.729 11.8257 35.6892 11.7923C35.6495 11.7589 35.6045 11.7362 35.5571 11.7258C35.3935 11.6847 35.3003 11.6905 35.3015 11.6803Z" fill="#263238"/>
<path d="M52.1966 11.5087C52.2183 11.5046 52.2405 11.5046 52.2622 11.5087C52.3257 11.5048 52.3893 11.5087 52.4521 11.5204C52.504 11.5284 52.5539 11.5498 52.5986 11.5832C52.6432 11.6166 52.6816 11.6612 52.7113 11.7142C52.7513 11.7852 52.7753 11.8681 52.7808 11.9542C52.7862 12.0404 52.773 12.1268 52.7423 12.2046C52.7028 12.2959 52.648 12.376 52.5815 12.4395C52.515 12.503 52.4384 12.5485 52.3566 12.5731C52.1734 12.6217 51.985 12.6331 51.7989 12.6068L50.5426 12.5187C50.4276 12.5166 50.3138 12.4908 50.2058 12.4424C50.1516 12.4165 50.1024 12.377 50.0613 12.3265C50.0201 12.2759 49.988 12.2154 49.967 12.1488C49.9503 12.0808 49.9472 12.0088 49.958 11.939C49.9688 11.8692 49.9932 11.8037 50.0291 11.748C50.0925 11.642 50.1809 11.5626 50.2822 11.5204C50.4633 11.4619 50.6506 11.4386 50.8375 11.4514C51.0095 11.4514 51.1707 11.4588 51.3152 11.4661L52.0079 11.5028C52.0924 11.5024 52.177 11.5078 52.261 11.5189C52.2397 11.5267 52.2176 11.5301 52.1954 11.5292C52.1524 11.5292 52.0891 11.5366 52.0067 11.5395C51.8431 11.5395 51.6066 11.5395 51.314 11.5395C51.1683 11.5395 51.0083 11.5395 50.8364 11.5395C50.6572 11.5299 50.4779 11.5547 50.3049 11.6129C50.217 11.6485 50.1408 11.718 50.0876 11.8111C50.059 11.8553 50.0394 11.9073 50.0304 11.9627C50.0215 12.0182 50.0235 12.0754 50.0362 12.1297C50.0541 12.1848 50.0812 12.2348 50.1158 12.2762C50.1503 12.3177 50.1916 12.3498 50.2369 12.3705C50.3369 12.4149 50.4422 12.4387 50.5485 12.4409L51.8037 12.5349C51.9822 12.5628 52.1632 12.5553 52.3399 12.5129C52.4145 12.493 52.485 12.4541 52.5467 12.3988C52.6084 12.3434 52.66 12.2727 52.6981 12.1913C52.7256 12.1233 52.7383 12.0476 52.7349 11.9717C52.7316 11.8958 52.7123 11.8223 52.679 11.7583C52.6535 11.7092 52.6199 11.6673 52.5804 11.6352C52.5409 11.6031 52.4964 11.5815 52.4497 11.5718C52.2885 11.5131 52.1954 11.5189 52.1966 11.5087Z" fill="#263238"/>
<path d="M54.7427 8.41968C54.7427 8.41968 54.7427 8.44753 54.726 8.50178C54.7093 8.55602 54.6962 8.63958 54.6723 8.7466L54.4585 9.69367C54.2686 10.5249 53.9916 11.7461 53.6381 13.2855V13.2943H53.6309C53.031 13.6386 52.477 14.0923 51.9876 14.6401C51.7107 14.9472 51.4547 15.2816 51.2222 15.6399C50.9749 16.0251 50.7514 16.4323 50.5534 16.8582C50.128 17.7954 49.8067 18.7983 49.598 19.8401C49.3575 20.9859 49.2332 22.1637 49.2278 23.3469V23.3821H49.2003H37.2198L21.7665 23.3747H21.7438V23.3484C21.3461 19.4663 21.1073 16.2703 20.9556 14.0346C20.8816 12.9204 20.8362 12.0496 20.798 11.4573C20.7825 11.1641 20.7705 10.9354 20.7622 10.7815C20.7538 10.6275 20.749 10.5528 20.749 10.5528C20.749 10.5528 20.7562 10.6305 20.7657 10.7829C20.7753 10.9354 20.7908 11.1626 20.8087 11.4573C20.8481 12.0437 20.9067 12.9233 20.9807 14.0331C21.1371 16.2601 21.3891 19.4575 21.782 23.3484L21.7581 23.322H37.2115H49.192L49.1645 23.3572C49.1715 22.1699 49.2974 20.9882 49.5395 19.8387C49.7527 18.7918 50.0788 17.7845 50.5092 16.8435C50.7087 16.4153 50.9343 16.0061 51.1839 15.6194C51.4185 15.26 51.6766 14.9247 51.9554 14.6166C52.4491 14.0681 53.0076 13.6144 53.6118 13.2708L53.6022 13.284L54.4382 9.69806C54.5349 9.28611 54.609 8.96504 54.6603 8.75247C54.6854 8.64691 54.7045 8.56628 54.7189 8.51057C54.7332 8.45486 54.7427 8.41968 54.7427 8.41968Z" fill="#263238"/>
<path d="M37.5205 9.16296C37.5216 9.17515 37.5216 9.18743 37.5205 9.19961C37.5205 9.22747 37.5145 9.26266 37.511 9.30664C37.5014 9.40633 37.4871 9.54413 37.4692 9.71713C37.4512 9.89012 37.4274 10.1144 37.4059 10.368C37.3844 10.6217 37.3545 10.9105 37.333 11.2315C37.3115 11.5526 37.2841 11.9015 37.2661 12.2783C37.2482 12.6551 37.2303 13.0597 37.2136 13.4834C37.1909 14.3322 37.1849 15.2676 37.2136 16.2469C37.2423 17.2262 37.2996 18.1601 37.37 19.0045C37.4083 19.4267 37.4429 19.8284 37.4895 20.2023C37.536 20.5761 37.5731 20.925 37.6149 21.2431C37.6567 21.5613 37.6997 21.8457 37.7343 22.0978C37.7689 22.35 37.8036 22.5655 37.8334 22.7414C37.8633 22.9174 37.8812 23.0493 37.8967 23.1475L37.9122 23.2545C37.9139 23.2667 37.9139 23.2791 37.9122 23.2912C37.9074 23.2802 37.9042 23.2683 37.9027 23.256C37.8963 23.2286 37.8891 23.1935 37.8812 23.1505C37.8633 23.0522 37.8382 22.9174 37.8059 22.7473C37.7737 22.5772 37.7343 22.3573 37.6961 22.1052C37.6579 21.853 37.6077 21.5701 37.5671 21.2519C37.5265 20.9338 37.4751 20.5864 37.4345 20.211C37.3939 19.8357 37.3509 19.4355 37.3151 19.0118C37.2423 18.1659 37.1825 17.232 37.1539 16.2498C37.1252 15.2676 37.1372 14.3322 37.1622 13.4805C37.1802 13.0553 37.1945 12.6521 37.2208 12.2739C37.247 11.8957 37.2685 11.5409 37.296 11.2257C37.3235 10.9105 37.3521 10.6173 37.3772 10.3637C37.4023 10.11 37.4286 9.89159 37.4512 9.7142C37.4739 9.53681 37.4919 9.40339 37.505 9.30517L37.5205 9.19815C37.5191 9.18649 37.5191 9.17463 37.5205 9.16296Z" fill="#263238"/>
<path d="M20.8934 8.74601C20.5113 9.09834 19.938 9.18642 19.4723 9.06751C19.0065 8.9486 18.6363 8.68288 18.3975 8.17346L19.4484 8.11621L20.8934 8.74601Z" fill="#263238"/>
<path d="M19.4458 8.11803C19.4458 8.11803 20.5063 8.91116 20.8144 8.80267C21.1225 8.69418 26.069 3.89729 29.0486 2.04568C28.7568 1.91292 28.452 1.82813 28.1422 1.79352C28.1422 1.79352 26.7545 2.65555 25.0228 3.93394C23.7092 4.90739 22.3657 5.92776 21.7387 6.3969L19.4458 8.11803Z" fill="#455A64"/>
<path d="M22.8378 9.13361L22.8032 9.15999L22.6993 9.23476L22.2933 9.51771L20.7623 10.5718C19.8069 10.5293 18.5708 10.4985 17.1581 10.5718C16.4523 10.6099 15.7023 10.6715 14.9213 10.7697C14.1403 10.8679 13.327 11.0043 12.4946 11.167C11.0365 11.4456 9.6619 11.7989 8.40318 12.0818C7.28785 12.3312 6.16121 12.4971 5.02949 12.5788C4.06336 12.6462 3.27875 12.6287 2.73896 12.6096C2.46787 12.5993 2.26127 12.5861 2.11676 12.5759L1.95435 12.5627C1.93605 12.5639 1.91771 12.5639 1.89941 12.5627C1.89941 12.5627 1.91852 12.5627 1.95554 12.5627H2.11676C2.25888 12.5627 2.47503 12.5773 2.73896 12.5832C3.27994 12.5935 4.06216 12.6023 5.0271 12.5275C6.15249 12.4393 7.27264 12.2694 8.38169 12.0188C9.63802 11.7256 11.015 11.3767 12.4743 11.0966C13.3103 10.9339 14.1212 10.8034 14.9046 10.7008C15.688 10.5982 16.4392 10.5439 17.1461 10.5102C18.5601 10.4428 19.7937 10.4824 20.7539 10.5322H20.7432L22.2837 9.50598L22.6945 9.2333L22.8008 9.16439C22.8119 9.15207 22.8244 9.14171 22.8378 9.13361Z" fill="#263238"/>
<path d="M23.9636 9.28631C31.4728 8.87435 46.6204 8.5313 54.1297 8.11348C54.1297 8.11348 54.3769 7.10044 53.6699 6.46711C53.4132 6.23694 51.8535 4.78849 50.0323 3.93671C47.7988 2.91333 45.4679 2.24477 43.0963 1.94729C41.7587 1.81388 39.3117 1.6922 39.3117 1.6922C39.3117 1.6922 34.8322 1.91211 33.5795 2.04991C32.004 2.21056 30.4659 2.72435 29.0414 3.5658C27.4829 4.5246 24.7589 7.32914 24.7589 7.32914L22.8481 9.29071L23.9636 9.28631Z" fill="#455A64"/>
<path d="M37.7833 1.42566L36.3335 9.03302L38.962 8.93039L39.4839 1.42566H37.7833Z" fill="#263238"/>
<path d="M49.144 3.26648L48.8896 8.41959H49.2539L49.5011 3.42774L49.144 3.26648Z" fill="#263238"/>
<path d="M24.248 7.54004C24.3674 7.72935 25.0302 9.57257 25.0302 9.57257L22.4937 9.36859L24.248 7.54004Z" fill="#263238"/>
<path d="M26.6271 9.38721L24.6901 9.45319C24.4357 9.45319 24.2351 8.89315 24.2434 8.21143C24.2506 7.60155 24.4225 7.08697 24.6494 6.99754L26.485 6.28357L26.6271 9.38721Z" fill="#FF725E"/>
<path d="M38.6063 1.34046C38.623 1.34046 38.4176 3.07625 38.1489 5.21227C37.8802 7.34829 37.6461 9.07675 37.6294 9.07235C37.6127 9.06795 37.8169 7.33656 38.0868 5.20054C38.3567 3.06453 38.5884 1.33606 38.6063 1.34046Z" fill="#455A64"/>
<path d="M24.3232 7.42717C24.2581 7.70557 24.1582 7.96986 24.0271 8.21057C23.9137 8.46456 23.7681 8.69482 23.596 8.89276C23.5816 8.87809 23.7751 8.57587 23.9745 8.17097C24.174 7.76606 24.3065 7.41836 24.3232 7.42717Z" fill="#455A64"/>
<path d="M35.0412 2.81102C35.0335 2.83279 35.0239 2.85344 35.0125 2.8726L34.923 3.04412C34.8382 3.20246 34.7235 3.41357 34.585 3.66866C34.2972 4.19497 33.9019 4.92213 33.4708 5.73139C33.0397 6.54064 32.6563 7.2766 32.3793 7.81024L32.0485 8.44064C32.0126 8.50954 31.9816 8.56525 31.9565 8.6107C31.947 8.63147 31.9353 8.65069 31.9219 8.66788C31.9219 8.66788 31.9278 8.64442 31.9458 8.60337L32.0282 8.42598C32.101 8.27205 32.2073 8.05214 32.3411 7.78238C32.6098 7.23995 32.9883 6.49813 33.4159 5.68887C33.8434 4.87961 34.2518 4.15685 34.5444 3.63641C34.6925 3.37838 34.8143 3.16874 34.9027 3.02653C34.9433 2.96202 34.9755 2.90778 35.003 2.86233C35.0304 2.81689 35.0388 2.80956 35.0412 2.81102Z" fill="#EBEBEB"/>
<path d="M33.939 3.95557C33.7592 4.33037 33.5618 4.69201 33.3478 5.03866C33.1513 5.40057 32.9371 5.74756 32.7065 6.07773C32.8865 5.70303 33.0839 5.3414 33.2977 4.99463C33.4945 4.63296 33.7086 4.28599 33.939 3.95557Z" fill="#EBEBEB"/>
<path d="M72.0588 13.3602C72.0588 13.3602 71.4355 13.4085 70.9649 13.1608C70.7864 13.0685 70.6249 12.9329 70.49 12.7623C70.3551 12.5917 70.2495 12.3895 70.1797 12.1677C70.1098 11.9459 70.077 11.7091 70.0833 11.4715C70.0895 11.2338 70.1347 11.0001 70.2162 10.7844L70.2233 10.7668C70.3312 10.4919 70.4987 10.2588 70.7075 10.0933C70.9163 9.92771 71.1583 9.83611 71.4068 9.82855H71.6671C71.7636 10.0667 71.8212 10.3256 71.8367 10.5909C71.9072 11.2858 72.0135 12.3516 72.0588 13.3602Z" fill="#F5F5F5"/>
<path d="M44.4733 3.05539C44.4876 3.06712 43.9144 4.20624 43.1931 5.60045C42.4718 6.99466 41.8794 8.11473 41.8603 8.103C41.8412 8.09127 42.418 6.95361 43.1405 5.5594C43.8631 4.16519 44.459 3.04366 44.4733 3.05539Z" fill="#EBEBEB"/>
<path d="M44.2753 4.49365C44.1508 4.79982 44.0079 5.09415 43.8478 5.37418C43.706 5.66973 43.5463 5.9518 43.3701 6.21802C43.4953 5.91202 43.6386 5.61773 43.7988 5.33749C43.9404 5.04208 44.0997 4.76002 44.2753 4.49365Z" fill="#EBEBEB"/>
<path d="M26.1839 6.72492C25.7121 6.99876 25.2078 7.17913 24.6899 7.25931C24.6899 7.23735 25.0243 7.13925 25.4351 6.99138C25.8459 6.8435 26.1779 6.70442 26.1839 6.72492Z" fill="#EBEBEB"/>
<path d="M36.5793 9.94555C36.5793 9.96742 33.4277 9.98346 29.5417 9.98346C25.6557 9.98346 22.5029 9.96742 22.5029 9.94555C22.5029 9.92369 25.6533 9.90765 29.5417 9.90765C33.4301 9.90765 36.5793 9.92514 36.5793 9.94555Z" fill="#EBEBEB"/>
<path d="M35.5452 11.482C35.2054 11.5204 34.864 11.533 34.523 11.5199C34.1815 11.5331 33.8397 11.5204 33.4995 11.482C33.8397 11.4444 34.1815 11.4318 34.523 11.4441C34.864 11.4318 35.2054 11.4445 35.5452 11.482Z" fill="#EBEBEB"/>
<path d="M12.6617 13.2238C12.6355 13.2269 12.6091 13.2269 12.5829 13.2238C12.5315 13.2238 12.4563 13.2238 12.3595 13.2238C12.0865 13.224 11.8137 13.2445 11.5427 13.2854C10.6457 13.4164 9.78228 13.7834 9.01129 14.3612C8.24031 14.9391 7.57989 15.7142 7.07507 16.6338C6.92149 16.9109 6.7819 17.1992 6.65709 17.4973C6.61051 17.6028 6.58066 17.6864 6.55677 17.7421C6.54699 17.7719 6.53415 17.7999 6.51855 17.8257C6.52565 17.795 6.53484 17.7651 6.54602 17.7363C6.56632 17.6791 6.5926 17.5897 6.63559 17.4841C6.7524 17.1794 6.8869 16.8855 7.03805 16.6045C7.53735 15.6678 8.20018 14.8793 8.97848 14.2961C9.75679 13.7129 10.6311 13.3496 11.5379 13.2326C11.8111 13.1951 12.0861 13.1824 12.3607 13.1945C12.4575 13.1945 12.5327 13.2077 12.5841 13.2121C12.6102 13.2121 12.6363 13.216 12.6617 13.2238Z" fill="#EBEBEB"/>
<path d="M48.6578 9.53952C48.6578 9.55995 46.5715 9.57745 44.0003 9.57745C41.4291 9.57745 39.3428 9.55995 39.3428 9.53952C39.3428 9.5191 41.4279 9.50159 44.0003 9.50159C46.5726 9.50159 48.6578 9.51764 48.6578 9.53952Z" fill="#EBEBEB"/>
<path d="M52.7446 11.2579C52.6325 11.2697 52.5198 11.2697 52.4078 11.2579C52.2 11.2579 51.9134 11.2447 51.5969 11.2418C51.2804 11.2389 50.9938 11.2418 50.786 11.2418C50.6738 11.2515 50.5611 11.2491 50.4492 11.2345C50.5595 11.2053 50.672 11.1895 50.7848 11.1875C50.9926 11.1714 51.2792 11.1582 51.5969 11.1597C51.9146 11.1611 52.2024 11.1787 52.4102 11.1993C52.523 11.2045 52.6351 11.2241 52.7446 11.2579Z" fill="#EBEBEB"/>
</svg>
