<svg width="16" height="16" viewBox="0 0 16 16" fill="none" xmlns="http://www.w3.org/2000/svg">
<path d="M7.75 4.75V7.75L10 10L7.75 4.75ZM14.5 7.75C14.5 8.63642 14.3254 9.51417 13.9862 10.3331C13.647 11.1521 13.1498 11.8962 12.523 12.523C11.8962 13.1498 11.1521 13.647 10.3331 13.9862C9.51417 14.3254 8.63642 14.5 7.75 14.5C6.86358 14.5 5.98583 14.3254 5.16689 13.9862C4.34794 13.647 3.60382 13.1498 2.97703 12.523C2.35023 11.8962 1.85303 11.1521 1.51381 10.3331C1.17459 9.51417 1 8.63642 1 7.75C1 5.95979 1.71116 4.2429 2.97703 2.97703C4.2429 1.71116 5.95979 1 7.75 1C9.54021 1 11.2571 1.71116 12.523 2.97703C13.7888 4.2429 14.5 5.95979 14.5 7.75Z" stroke="#1F3A93" stroke-width="2" stroke-linecap="round" stroke-linejoin="round"/>
</svg>
