<svg width="14" height="17" viewBox="0 0 14 17" fill="none" xmlns="http://www.w3.org/2000/svg">
<path d="M10 2.5H11.5C11.8978 2.5 12.2794 2.65804 12.5607 2.93934C12.842 3.22064 13 3.60218 13 4V14.5C13 14.8978 12.842 15.2794 12.5607 15.5607C12.2794 15.842 11.8978 16 11.5 16H2.5C2.10218 16 1.72064 15.842 1.43934 15.5607C1.15804 15.2794 1 14.8978 1 14.5V4C1 3.60218 1.15804 3.22064 1.43934 2.93934C1.72064 2.65804 2.10218 2.5 2.5 2.5H4" stroke="#1F3A93" stroke-linecap="round" stroke-linejoin="round"/>
<path d="M9.25 1H4.75C4.33579 1 4 1.33579 4 1.75V3.25C4 3.66421 4.33579 4 4.75 4H9.25C9.66421 4 10 3.66421 10 3.25V1.75C10 1.33579 9.66421 1 9.25 1Z" stroke="#1F3A93" stroke-linecap="round" stroke-linejoin="round"/>
</svg>
