<svg width="71" height="33" viewBox="0 0 71 33" fill="none" xmlns="http://www.w3.org/2000/svg">
<path d="M35.16 32.1818C54.5783 32.1818 70.32 31.4378 70.32 30.5201C70.32 29.6024 54.5783 28.8584 35.16 28.8584C15.7417 28.8584 0 29.6024 0 30.5201C0 31.4378 15.7417 32.1818 35.16 32.1818Z" fill="#F5F5F5"/>
<path d="M65.5981 0H21.7501C21.03 0 20.4463 0.472544 20.4463 1.05546V22.9162C20.4463 23.4991 21.03 23.9716 21.7501 23.9716H65.5981C66.3182 23.9716 66.902 23.4991 66.902 22.9162V1.05546C66.902 0.472544 66.3182 0 65.5981 0Z" fill="#407BFF"/>
<path opacity="0.6" d="M65.5981 0H21.7501C21.03 0 20.4463 0.472544 20.4463 1.05546V22.9162C20.4463 23.4991 21.03 23.9716 21.7501 23.9716H65.5981C66.3182 23.9716 66.902 23.4991 66.902 22.9162V1.05546C66.902 0.472544 66.3182 0 65.5981 0Z" fill="black"/>
<path d="M49.6167 30.5201H38.769C39.8317 27.2759 39.1952 23.7808 36.8613 20.5381H47.7091C50.0429 23.7808 50.6794 27.2759 49.6167 30.5201Z" fill="#407BFF"/>
<path d="M49.0508 30.5201H38.2012C39.2638 27.2759 38.6291 23.7808 36.2935 20.5381H47.1431C49.486 23.7808 50.1134 27.2759 49.0508 30.5201Z" fill="#407BFF"/>
<path d="M49.4207 25.2003H38.4532C38.0766 23.5566 37.3455 21.9795 36.2935 20.541H47.2609C48.3115 21.9801 49.0424 23.557 49.4207 25.2003Z" fill="#407BFF"/>
<g opacity="0.4">
<path opacity="0.4" d="M49.6163 30.5201H38.7685C39.8312 27.2759 39.1947 23.7808 36.8608 20.5381H47.7086C50.0424 23.7808 50.6789 27.2759 49.6163 30.5201Z" fill="black"/>
<path opacity="0.4" d="M49.0508 30.5201H38.2012C39.2638 27.2759 38.6291 23.7808 36.2935 20.5381H47.1431C49.486 23.7808 50.1134 27.2759 49.0508 30.5201Z" fill="black"/>
<path opacity="0.4" d="M49.4207 25.2H38.4532C38.0766 23.5564 37.3455 21.9792 36.2935 20.5407H47.2609C48.3114 21.9798 49.0424 23.5568 49.4207 25.2Z" fill="black"/>
</g>
<path d="M49.0508 30.5201H38.2012C39.2638 27.2759 38.6291 23.7808 36.2935 20.5381H47.1431C49.486 23.7808 50.1134 27.2759 49.0508 30.5201Z" fill="#407BFF"/>
<path opacity="0.2" d="M49.0508 30.5201H38.2012C39.2638 27.2759 38.6291 23.7808 36.2935 20.5381H47.1431C49.486 23.7808 50.1134 27.2759 49.0508 30.5201Z" fill="black"/>
<path opacity="0.2" d="M49.3048 25.2003H38.4425C38.0691 23.5584 37.3449 21.9817 36.3027 20.541H47.165C48.2072 21.9817 48.9313 23.5584 49.3048 25.2003Z" fill="black"/>
<path d="M64.9819 0H21.1339C20.4138 0 19.8301 0.472544 19.8301 1.05546V22.9162C19.8301 23.4991 20.4138 23.9716 21.1339 23.9716H64.9819C65.702 23.9716 66.2858 23.4991 66.2858 22.9162V1.05546C66.2858 0.472544 65.702 0 64.9819 0Z" fill="#407BFF"/>
<path opacity="0.3" d="M64.9819 0H21.1339C20.4138 0 19.8301 0.472544 19.8301 1.05546V22.9162C19.8301 23.4991 20.4138 23.9716 21.1339 23.9716H64.9819C65.702 23.9716 66.2858 23.4991 66.2858 22.9162V1.05546C66.2858 0.472544 65.702 0 64.9819 0Z" fill="black"/>
<path d="M47.0382 29.8258H34.6527C34.4252 29.8258 34.207 29.8988 34.0461 30.0288C33.8853 30.1588 33.7949 30.335 33.7949 30.5189H47.8959C47.8959 30.335 47.8056 30.1588 47.6447 30.0288C47.4838 29.8988 47.2657 29.8258 47.0382 29.8258Z" fill="#407BFF"/>
<path opacity="0.3" d="M47.0382 29.8258H34.6527C34.4252 29.8258 34.207 29.8988 34.0461 30.0288C33.8853 30.1588 33.7949 30.335 33.7949 30.5189H47.8959C47.8959 30.335 47.8056 30.1588 47.6447 30.0288C47.4838 29.8988 47.2657 29.8258 47.0382 29.8258Z" fill="black"/>
<path d="M66.2853 1.2157H19.8296V20.5383H66.2853V1.2157Z" fill="#407BFF"/>
<path opacity="0.84" d="M66.2691 1.2157H19.8135V20.5383H66.2691V1.2157Z" fill="#FAFAFA"/>
<path opacity="0.23" d="M59.5342 2.70984H28.2367C27.9523 2.70984 27.7217 2.89649 27.7217 3.12674V17.9472C27.7217 18.1774 27.9523 18.3641 28.2367 18.3641H59.5342C59.8186 18.3641 60.0492 18.1774 60.0492 17.9472V3.12674C60.0492 2.89649 59.8186 2.70984 59.5342 2.70984Z" fill="#407BFF"/>
<path opacity="0.67" d="M59.9135 3.78442V17.9443C59.9135 18.0548 59.8592 18.1609 59.7626 18.2391C59.666 18.3173 59.535 18.3612 59.3984 18.3612H28.1009C27.9645 18.3608 27.8338 18.3167 27.7373 18.2386C27.6408 18.1605 27.5864 18.0547 27.5859 17.9443V3.78442H59.9135Z" fill="#FAFAFA"/>
<path opacity="0.41" d="M59.819 4.33923H27.6802V17.8077H59.819V4.33923Z" fill="white"/>
<path opacity="0.19" d="M53.2564 13.6372C52.4117 13.6372 51.5861 13.4345 50.8838 13.0546C50.1815 12.6748 49.6341 12.1349 49.3109 11.5032C48.9877 10.8715 48.9031 10.1764 49.0679 9.50579C49.2327 8.8352 49.6394 8.21922 50.2367 7.73575C50.8339 7.25227 51.5948 6.92302 52.4232 6.78963C53.2516 6.65624 54.1103 6.7247 54.8906 6.98636C55.671 7.24801 56.338 7.6911 56.8072 8.25961C57.2765 8.82811 57.5269 9.49649 57.5269 10.1802C57.5255 11.0967 57.0751 11.9754 56.2745 12.6234C55.4739 13.2715 54.3886 13.6361 53.2564 13.6372ZM53.2564 6.75991C52.4207 6.75991 51.6038 6.9605 50.909 7.33633C50.2142 7.71216 49.6726 8.24634 49.3528 8.87133C49.033 9.49631 48.9493 10.184 49.1124 10.8475C49.2754 11.511 49.6778 12.1204 50.2687 12.5987C50.8596 13.0771 51.6125 13.4028 52.4321 13.5348C53.2517 13.6668 54.1012 13.5991 54.8733 13.3402C55.6453 13.0813 56.3052 12.6429 56.7695 12.0804C57.2338 11.518 57.4816 10.8567 57.4816 10.1802C57.4806 9.27333 57.0352 8.40382 56.243 7.76255C55.4508 7.12129 54.3767 6.76068 53.2564 6.75991Z" fill="#407BFF"/>
<path opacity="0.19" d="M46.0772 13.6372C45.2325 13.6372 44.4069 13.4345 43.7046 13.0546C43.0023 12.6748 42.4549 12.1349 42.1317 11.5032C41.8085 10.8715 41.7239 10.1764 41.8887 9.50579C42.0535 8.8352 42.4602 8.21922 43.0575 7.73575C43.6547 7.25227 44.4156 6.92302 45.244 6.78963C46.0724 6.65624 46.9311 6.7247 47.7114 6.98636C48.4918 7.24801 49.1587 7.6911 49.628 8.25961C50.0973 8.82811 50.3477 9.49649 50.3477 10.1802C50.3458 11.0966 49.8953 11.975 49.0948 12.623C48.2943 13.271 47.2092 13.6357 46.0772 13.6372ZM46.0772 6.75991C45.2415 6.75991 44.4246 6.9605 43.7298 7.33633C43.035 7.71216 42.4934 8.24634 42.1736 8.87133C41.8538 9.49631 41.7701 10.184 41.9332 10.8475C42.0962 11.511 42.4986 12.1204 43.0895 12.5987C43.6804 13.0771 44.4333 13.4028 45.2529 13.5348C46.0725 13.6668 46.922 13.5991 47.6941 13.3402C48.4661 13.0813 49.126 12.6429 49.5903 12.0804C50.0546 11.518 50.3024 10.8567 50.3024 10.1802C50.3009 9.27345 49.8553 8.40416 49.0633 7.76298C48.2712 7.1218 47.1973 6.76107 46.0772 6.75991Z" fill="#407BFF"/>
<path opacity="0.19" d="M57.5049 15.5686H32.2987C32.2957 15.5686 32.2927 15.5681 32.2899 15.5671C32.2872 15.5662 32.2847 15.5647 32.2826 15.5629C32.2806 15.5611 32.279 15.559 32.278 15.5567C32.2771 15.5544 32.2767 15.552 32.2769 15.5495V14.9818C32.2767 14.9794 32.2771 14.977 32.278 14.9746C32.279 14.9723 32.2806 14.9702 32.2826 14.9684C32.2847 14.9666 32.2872 14.9652 32.2899 14.9642C32.2927 14.9633 32.2957 14.9628 32.2987 14.9628H57.5049C57.5079 14.9628 57.5109 14.9633 57.5137 14.9642C57.5164 14.9652 57.5189 14.9666 57.521 14.9684C57.523 14.9702 57.5246 14.9723 57.5255 14.9746C57.5265 14.977 57.5269 14.9794 57.5267 14.9818V15.5495C57.5269 15.552 57.5265 15.5544 57.5255 15.5567C57.5246 15.559 57.523 15.5611 57.521 15.5629C57.5189 15.5647 57.5164 15.5662 57.5137 15.5671C57.5109 15.5681 57.5079 15.5686 57.5049 15.5686ZM32.315 15.5319H57.4813V14.9994H32.315V15.5319Z" fill="#407BFF"/>
<path opacity="0.19" d="M58.9155 16.5614H28.5882C28.5852 16.5614 28.5822 16.5609 28.5795 16.56C28.5767 16.559 28.5742 16.5576 28.5722 16.5558C28.5701 16.554 28.5686 16.5518 28.5676 16.5495C28.5666 16.5472 28.5662 16.5448 28.5665 16.5423V5.60319C28.5662 5.60076 28.5666 5.59831 28.5676 5.596C28.5686 5.59369 28.5701 5.59157 28.5722 5.58977C28.5742 5.58798 28.5767 5.58655 28.5795 5.58557C28.5822 5.5846 28.5852 5.5841 28.5882 5.58411H58.9155C58.9185 5.5841 58.9215 5.5846 58.9243 5.58557C58.9271 5.58655 58.9295 5.58798 58.9316 5.58977C58.9336 5.59157 58.9352 5.59369 58.9362 5.596C58.9372 5.59831 58.9375 5.60076 58.9373 5.60319V16.5394C58.9381 16.5421 58.9382 16.5448 58.9375 16.5475C58.9368 16.5502 58.9353 16.5527 58.9332 16.5548C58.9311 16.557 58.9284 16.5587 58.9253 16.5598C58.9223 16.561 58.9189 16.5615 58.9155 16.5614ZM28.6173 16.5247H58.901V5.62081H28.6118L28.6173 16.5247Z" fill="#407BFF"/>
<path d="M58.5112 3.24829C58.5109 3.29214 58.5266 3.33508 58.5565 3.37168C58.5864 3.40827 58.629 3.43688 58.679 3.45386C58.729 3.47084 58.7841 3.47543 58.8374 3.46705C58.8906 3.45868 58.9396 3.43771 58.978 3.40681C59.0165 3.37591 59.0428 3.33647 59.0535 3.29349C59.0642 3.25051 59.0589 3.20592 59.0382 3.16538C59.0176 3.12485 58.9825 3.09019 58.9374 3.0658C58.8923 3.04141 58.8393 3.02839 58.7851 3.02839C58.7492 3.02819 58.7136 3.03374 58.6804 3.0447C58.6472 3.05567 58.617 3.07183 58.5915 3.09227C58.5661 3.11271 58.5459 3.13702 58.5321 3.1638C58.5183 3.19057 58.5112 3.21929 58.5112 3.24829Z" fill="white"/>
<path d="M57.8148 3.46964C57.9661 3.46964 58.0887 3.37053 58.0887 3.24828C58.0887 3.12602 57.9661 3.02692 57.8148 3.02692C57.6636 3.02692 57.541 3.12602 57.541 3.24828C57.541 3.37053 57.6636 3.46964 57.8148 3.46964Z" fill="white"/>
<path d="M56.8451 3.46964C56.9964 3.46964 57.119 3.37053 57.119 3.24828C57.119 3.12602 56.9964 3.02692 56.8451 3.02692C56.6939 3.02692 56.5713 3.12602 56.5713 3.24828C56.5713 3.37053 56.6939 3.46964 56.8451 3.46964Z" fill="white"/>
<path d="M59.9135 3.75647H27.5859V3.81302H59.9135V3.75647Z" fill="#407BFF"/>
<path opacity="0.47" d="M32.2459 1.2157L27.979 20.5383H32.2024L36.4694 1.2157H32.2459Z" fill="#FAFAFA"/>
<path opacity="0.47" d="M37.4995 1.2157L33.2344 20.5383H35.3452L39.6121 1.2157H37.4995Z" fill="#FAFAFA"/>
<path opacity="0.4" d="M61.1029 1.2157L56.8359 20.5383H57.8932L62.1583 1.2157H61.1029Z" fill="white"/>
<path opacity="0.4" d="M59.244 1.2157L54.9771 20.5383H56.0343L60.2994 1.2157H59.244Z" fill="white"/>
<path d="M49.9886 29.8258H47.7708C47.5433 29.8258 47.3252 29.8988 47.1643 30.0288C47.0035 30.1588 46.9131 30.335 46.9131 30.5189H50.8445C50.8447 30.4279 50.8228 30.3378 50.7798 30.2538C50.7369 30.1697 50.6739 30.0933 50.5944 30.0289C50.5149 29.9645 50.4205 29.9134 50.3165 29.8786C50.2126 29.8437 50.1011 29.8258 49.9886 29.8258Z" fill="#407BFF"/>
<path opacity="0.4" d="M49.9886 29.8258H47.7708C47.5433 29.8258 47.3252 29.8988 47.1643 30.0288C47.0035 30.1588 46.9131 30.335 46.9131 30.5189H50.8445C50.8447 30.4279 50.8228 30.3378 50.7798 30.2538C50.7369 30.1697 50.6739 30.0933 50.5944 30.0289C50.5149 29.9645 50.4205 29.9134 50.3165 29.8786C50.2126 29.8437 50.1011 29.8258 49.9886 29.8258Z" fill="black"/>
<path d="M43.9461 22.2989C43.9461 22.4413 43.894 22.5805 43.7964 22.6989C43.6987 22.8173 43.5599 22.9096 43.3976 22.9641C43.2352 23.0186 43.0565 23.0329 42.8842 23.0051C42.7118 22.9773 42.5535 22.9087 42.4292 22.808C42.3049 22.7073 42.2203 22.579 42.186 22.4394C42.1517 22.2997 42.1693 22.1549 42.2366 22.0233C42.3038 21.8918 42.4177 21.7793 42.5639 21.7002C42.71 21.6211 42.8818 21.5789 43.0575 21.5789C43.2932 21.5789 43.5192 21.6547 43.6858 21.7897C43.8525 21.9248 43.9461 22.1079 43.9461 22.2989Z" fill="#407BFF"/>
<path opacity="0.5" d="M43.9461 22.2989C43.9461 22.4413 43.894 22.5805 43.7964 22.6989C43.6987 22.8173 43.5599 22.9096 43.3976 22.9641C43.2352 23.0186 43.0565 23.0329 42.8842 23.0051C42.7118 22.9773 42.5535 22.9087 42.4292 22.808C42.3049 22.7073 42.2203 22.579 42.186 22.4394C42.1517 22.2997 42.1693 22.1549 42.2366 22.0233C42.3038 21.8918 42.4177 21.7793 42.5639 21.7002C42.71 21.6211 42.8818 21.5789 43.0575 21.5789C43.2932 21.5789 43.5192 21.6547 43.6858 21.7897C43.8525 21.9248 43.9461 22.1079 43.9461 22.2989Z" fill="black"/>
<path d="M31.5242 3.4115H11.0781C10.3781 3.4115 9.81055 3.8709 9.81055 4.43759V29.494C9.81055 30.0607 10.3781 30.5201 11.0781 30.5201H31.5242C32.2242 30.5201 32.7917 30.0607 32.7917 29.494V4.43759C32.7917 3.8709 32.2242 3.4115 31.5242 3.4115Z" fill="#407BFF"/>
<path opacity="0.6" d="M31.5242 3.4115H11.0781C10.3781 3.4115 9.81055 3.8709 9.81055 4.43759V29.494C9.81055 30.0607 10.3781 30.5201 11.0781 30.5201H31.5242C32.2242 30.5201 32.7917 30.0607 32.7917 29.494V4.43759C32.7917 3.8709 32.2242 3.4115 31.5242 3.4115Z" fill="black"/>
<path d="M30.9168 3.4115H10.4707C9.77063 3.4115 9.20312 3.8709 9.20312 4.43759V29.494C9.20312 30.0607 9.77063 30.5201 10.4707 30.5201H30.9168C31.6168 30.5201 32.1843 30.0607 32.1843 29.494V4.43759C32.1843 3.8709 31.6168 3.4115 30.9168 3.4115Z" fill="#407BFF"/>
<path opacity="0.3" d="M30.9168 3.4115H10.4707C9.77063 3.4115 9.20312 3.8709 9.20312 4.43759V29.494C9.20312 30.0607 9.77063 30.5201 10.4707 30.5201H30.9168C31.6168 30.5201 32.1843 30.0607 32.1843 29.494V4.43759C32.1843 3.8709 31.6168 3.4115 30.9168 3.4115Z" fill="black"/>
<path d="M32.1843 4.59045H9.20312V28.1216H32.1843V4.59045Z" fill="#FAFAFA"/>
<path opacity="0.1" d="M32.1843 4.59045H9.20312V28.1216H32.1843V4.59045Z" fill="#407BFF"/>
<path opacity="0.48" d="M17.3507 4.64929L12.0918 28.1805H16.1085L21.3674 4.64929H17.3507Z" fill="#FAFAFA"/>
<path opacity="0.48" d="M22.5606 4.59045L17.3018 28.1231H19.3092L24.5681 4.59045H22.5606Z" fill="#FAFAFA"/>
<path d="M20.6928 30.0073C21.1695 30.0073 21.556 29.6939 21.556 29.3073C21.556 28.9207 21.1695 28.6074 20.6928 28.6074C20.2161 28.6074 19.8296 28.9207 19.8296 29.3073C19.8296 29.6939 20.2161 30.0073 20.6928 30.0073Z" fill="#407BFF"/>
<path opacity="0.5" d="M20.6928 30.0073C21.1695 30.0073 21.556 29.6939 21.556 29.3073C21.556 28.9207 21.1695 28.6074 20.6928 28.6074C20.2161 28.6074 19.8296 28.9207 19.8296 29.3073C19.8296 29.6939 20.2161 30.0073 20.6928 30.0073Z" fill="black"/>
<path d="M20.8921 3.95228C20.8921 3.98417 20.8804 4.01534 20.8585 4.04185C20.8366 4.06836 20.8054 4.08902 20.769 4.10122C20.7325 4.11342 20.6924 4.11662 20.6537 4.1104C20.615 4.10418 20.5795 4.08882 20.5516 4.06628C20.5237 4.04373 20.5047 4.01501 20.497 3.98374C20.4893 3.95246 20.4932 3.92005 20.5083 3.89059C20.5234 3.86114 20.549 3.83596 20.5818 3.81824C20.6146 3.80053 20.6532 3.79108 20.6926 3.79108C20.7455 3.79108 20.7963 3.80806 20.8337 3.83829C20.8711 3.86853 20.8921 3.90953 20.8921 3.95228Z" fill="#407BFF"/>
<path opacity="0.5" d="M20.8921 3.95228C20.8921 3.98417 20.8804 4.01534 20.8585 4.04185C20.8366 4.06836 20.8054 4.08902 20.769 4.10122C20.7325 4.11342 20.6924 4.11662 20.6537 4.1104C20.615 4.10418 20.5795 4.08882 20.5516 4.06628C20.5237 4.04373 20.5047 4.01501 20.497 3.98374C20.4893 3.95246 20.4932 3.92005 20.5083 3.89059C20.5234 3.86114 20.549 3.83596 20.5818 3.81824C20.6146 3.80053 20.6532 3.79108 20.6926 3.79108C20.7455 3.79108 20.7963 3.80806 20.8337 3.83829C20.8711 3.86853 20.8921 3.90953 20.8921 3.95228Z" fill="black"/>
<path d="M16.6633 9.13654H6.6914C5.99134 9.13654 5.42383 9.59593 5.42383 10.1626V29.494C5.42383 30.0607 5.99134 30.5201 6.6914 30.5201H16.6633C17.3633 30.5201 17.9308 30.0607 17.9308 29.494V10.1626C17.9308 9.59593 17.3633 9.13654 16.6633 9.13654Z" fill="#407BFF"/>
<path opacity="0.6" d="M16.6633 9.13654H6.6914C5.99134 9.13654 5.42383 9.59593 5.42383 10.1626V29.494C5.42383 30.0607 5.99134 30.5201 6.6914 30.5201H16.6633C17.3633 30.5201 17.9308 30.0607 17.9308 29.494V10.1626C17.9308 9.59593 17.3633 9.13654 16.6633 9.13654Z" fill="black"/>
<path d="M16.0559 9.13654H6.08397C5.38392 9.13654 4.81641 9.59593 4.81641 10.1626V29.494C4.81641 30.0607 5.38392 30.5201 6.08397 30.5201H16.0559C16.7559 30.5201 17.3234 30.0607 17.3234 29.494V10.1626C17.3234 9.59593 16.7559 9.13654 16.0559 9.13654Z" fill="#407BFF"/>
<path opacity="0.3" d="M16.0559 9.13654H6.08397C5.38392 9.13654 4.81641 9.59593 4.81641 10.1626V29.494C4.81641 30.0607 5.38392 30.5201 6.08397 30.5201H16.0559C16.7559 30.5201 17.3234 30.0607 17.3234 29.494V10.1626C17.3234 9.59593 16.7559 9.13654 16.0559 9.13654Z" fill="black"/>
<path d="M17.3234 10.3156H4.81641V28.6913H17.3234V10.3156Z" fill="#FAFAFA"/>
<path opacity="0.18" d="M17.3307 10.2772H4.82373V28.653H17.3307V10.2772Z" fill="#407BFF"/>
<path opacity="0.4" d="M9.35537 10.3169L5.29883 28.6927H9.31548L13.3738 10.3169H9.35537Z" fill="white"/>
<path opacity="0.4" d="M14.3529 10.3169L10.2964 28.6927H12.3056L16.3622 10.3169H14.3529Z" fill="white"/>
<path d="M11.6348 29.5407C11.6348 29.6309 11.6017 29.7191 11.5397 29.7941C11.4778 29.8691 11.3897 29.9276 11.2866 29.9621C11.1836 29.9967 11.0702 30.0057 10.9608 29.9881C10.8514 29.9705 10.7509 29.927 10.672 29.8632C10.5931 29.7994 10.5394 29.7182 10.5177 29.6297C10.4959 29.5412 10.5071 29.4494 10.5498 29.3661C10.5925 29.2827 10.6647 29.2115 10.7575 29.1614C10.8502 29.1112 10.9593 29.0845 11.0708 29.0845C11.2204 29.0845 11.3638 29.1325 11.4696 29.2181C11.5753 29.3036 11.6348 29.4197 11.6348 29.5407Z" fill="#407BFF"/>
<path opacity="0.5" d="M11.6348 29.5407C11.6348 29.6309 11.6017 29.7191 11.5397 29.7941C11.4778 29.8691 11.3897 29.9276 11.2866 29.9621C11.1836 29.9967 11.0702 30.0057 10.9608 29.9881C10.8514 29.9705 10.7509 29.927 10.672 29.8632C10.5931 29.7994 10.5394 29.7182 10.5177 29.6297C10.4959 29.5412 10.5071 29.4494 10.5498 29.3661C10.5925 29.2827 10.6647 29.2115 10.7575 29.1614C10.8502 29.1112 10.9593 29.0845 11.0708 29.0845C11.2204 29.0845 11.3638 29.1325 11.4696 29.2181C11.5753 29.3036 11.6348 29.4197 11.6348 29.5407Z" fill="black"/>
<path d="M12.5486 9.83844C12.6587 9.83844 12.748 9.76629 12.748 9.67728C12.748 9.58827 12.6587 9.51611 12.5486 9.51611C12.4384 9.51611 12.3491 9.58827 12.3491 9.67728C12.3491 9.76629 12.4384 9.83844 12.5486 9.83844Z" fill="#407BFF"/>
<path d="M11.7345 9.83844H9.59108C9.53817 9.83844 9.48744 9.82146 9.45003 9.79124C9.41262 9.76101 9.3916 9.72002 9.3916 9.67728C9.39207 9.63465 9.41324 9.59388 9.45055 9.56374C9.48786 9.5336 9.53832 9.5165 9.59108 9.51611H11.7327C11.7855 9.5165 11.8359 9.5336 11.8732 9.56374C11.9105 9.59388 11.9317 9.63465 11.9322 9.67728C11.9322 9.71977 11.9114 9.76054 11.8744 9.79072C11.8374 9.82091 11.7871 9.83805 11.7345 9.83844Z" fill="#407BFF"/>
<path opacity="0.5" d="M12.5486 9.83844C12.6587 9.83844 12.748 9.76629 12.748 9.67728C12.748 9.58827 12.6587 9.51611 12.5486 9.51611C12.4384 9.51611 12.3491 9.58827 12.3491 9.67728C12.3491 9.76629 12.4384 9.83844 12.5486 9.83844Z" fill="black"/>
<path opacity="0.5" d="M11.7345 9.83844H9.59108C9.53817 9.83844 9.48744 9.82146 9.45003 9.79124C9.41262 9.76101 9.3916 9.72002 9.3916 9.67728C9.39207 9.63465 9.41324 9.59388 9.45055 9.56374C9.48786 9.5336 9.53832 9.5165 9.59108 9.51611H11.7327C11.7855 9.5165 11.8359 9.5336 11.8732 9.56374C11.9105 9.59388 11.9317 9.63465 11.9322 9.67728C11.9322 9.71977 11.9114 9.76054 11.8744 9.79072C11.8374 9.82091 11.7871 9.83805 11.7345 9.83844Z" fill="black"/>
</svg>
