<svg width="30" height="30" viewBox="0 0 30 30" fill="none" xmlns="http://www.w3.org/2000/svg">
<g clip-path="url(#clip0)">
<path d="M22.1721 22.0001C22.6293 22.0001 23 21.6294 23 21.1722V7.82787C23 7.37061 22.6293 7 22.1721 7H8.82787C8.37055 7 8 7.37061 8 7.82787V21.1722C8 21.6294 8.37055 22.0001 8.82787 22.0001H22.1721Z" fill="#395185"/>
<path d="M18.3496 22V16.1912H20.2995L20.5914 13.9275H18.3496V12.4821C18.3496 11.8266 18.5317 11.38 19.4716 11.38L20.6704 11.3794V9.35474C20.4629 9.32714 19.7514 9.2655 18.9236 9.2655C17.1952 9.2655 16.0119 10.3205 16.0119 12.2579V13.9275H14.0571V16.1912H16.0119V22H18.3496Z" fill="white"/>
</g>
<circle cx="15" cy="15" r="14.5" stroke="#1F3A93"/>
<defs>
<clipPath id="clip0">
<rect width="15" height="15" fill="white" transform="translate(8 7)"/>
</clipPath>
</defs>
</svg>
