<svg width="72" height="40" viewBox="0 0 72 40" fill="none" xmlns="http://www.w3.org/2000/svg">
<path d="M68.4478 23.1959H4.07275V38.9622H68.4478V23.1959Z" fill="white" stroke="#263238" stroke-linecap="round" stroke-linejoin="round"/>
<path d="M69.1078 23.1959H3.4126V23.9178H69.1078V23.1959Z" fill="white" stroke="#263238" stroke-linecap="round" stroke-linejoin="round"/>
<path d="M49.6355 2.02942H46.1679C46.1207 2.93999 45.7288 3.80349 45.0645 4.46021V5.41037H50.7426V4.46021C50.077 3.80402 49.6836 2.94046 49.6355 2.02942Z" fill="#263238" stroke="#263238" stroke-linecap="round" stroke-linejoin="round"/>
<path d="M69.2812 23.2065H2.71045L8.25739 5.10132H63.7342L69.2812 23.2065Z" fill="#263238" stroke="#263238" stroke-linecap="round" stroke-linejoin="round"/>
<path d="M21.8625 18.7475H9.41504V8.90977L15.58 2.30219L21.8625 8.90977V18.7475Z" fill="white" stroke="#263238" stroke-linecap="round" stroke-linejoin="round"/>
<path d="M15.6741 1L8.06396 9.98187H11.7582V9.18849H9.87208L15.6741 2.58795L21.475 9.18849H19.6309V9.98187H23.2831L15.6741 1Z" fill="white" stroke="#263238" stroke-linecap="round" stroke-linejoin="round"/>
<path d="M11.7595 9.98181H8.0752V10.5991H11.7595V9.98181Z" fill="white" stroke="#263238" stroke-linecap="round" stroke-linejoin="round"/>
<path d="M23.2981 9.98181H19.6138V10.5991H23.2981V9.98181Z" fill="white" stroke="#263238" stroke-linecap="round" stroke-linejoin="round"/>
<path d="M17.8155 14.0502H16.3096V15.3204H17.8155V14.0502Z" fill="#CCCCCC"/>
<path d="M15.9963 10.7693H14.7739V12.1873H15.9963V10.7693Z" fill="#CCCCCC"/>
<path d="M19.6891 8.49293L15.705 3.98608C15.7005 3.98089 15.6948 3.97671 15.6884 3.97384C15.682 3.97097 15.675 3.96948 15.6679 3.96948C15.6608 3.96948 15.6538 3.97097 15.6474 3.97384C15.6409 3.97671 15.6353 3.98089 15.6307 3.98608L11.6579 8.49293C11.6521 8.49976 11.6485 8.508 11.6473 8.5167C11.6462 8.5254 11.6477 8.53422 11.6515 8.54218C11.6554 8.55014 11.6615 8.55692 11.6692 8.56175C11.6769 8.56659 11.6858 8.56929 11.695 8.56955H12.583C12.5894 8.56939 12.5957 8.57047 12.6016 8.57272C12.6076 8.57497 12.613 8.57836 12.6175 8.58266C12.622 8.58696 12.6256 8.59209 12.6279 8.59774C12.6303 8.6034 12.6314 8.60945 12.6313 8.61553V9.62465C12.6316 9.63675 12.6368 9.64827 12.6458 9.65683C12.6547 9.66538 12.6669 9.67032 12.6796 9.67062H18.6674C18.6802 9.67062 18.6925 9.66578 18.7015 9.65716C18.7106 9.64854 18.7157 9.63684 18.7157 9.62465V8.61081C18.7155 8.60473 18.7166 8.59868 18.719 8.59303C18.7214 8.58738 18.7249 8.58224 18.7294 8.57794C18.734 8.57364 18.7393 8.57026 18.7453 8.56801C18.7512 8.56575 18.7576 8.56467 18.764 8.56484H19.6519C19.6603 8.56405 19.6683 8.56124 19.6753 8.55667C19.6822 8.5521 19.6878 8.54592 19.6915 8.53872C19.6952 8.53152 19.697 8.52354 19.6965 8.51552C19.6961 8.50751 19.6935 8.49973 19.6891 8.49293Z" fill="#CCCCCC"/>
<path d="M15.9963 12.4846H14.7739V13.7549H15.9963V12.4846Z" fill="#CCCCCC"/>
<path d="M17.8155 12.4846H16.3096V13.7549H17.8155V12.4846Z" fill="#CCCCCC"/>
<path d="M15.9963 14.0502H14.7739V15.3204H15.9963V14.0502Z" fill="#CCCCCC"/>
<path d="M17.8155 10.7693H16.3096V12.1873H17.8155V10.7693Z" fill="#CCCCCC"/>
<path d="M15.9963 15.6169H14.7739V17.2443H15.9963V15.6169Z" fill="#CCCCCC"/>
<path d="M17.8155 15.6169H16.3096V17.2443H17.8155V15.6169Z" fill="#CCCCCC"/>
<path d="M14.4617 15.6169H12.9893V17.2443H14.4617V15.6169Z" fill="#CCCCCC"/>
<path d="M14.4617 14.0502H12.9893V15.3204H14.4617V14.0502Z" fill="#CCCCCC"/>
<path d="M14.4617 12.4846H12.9893V13.7549H14.4617V12.4846Z" fill="#CCCCCC"/>
<path d="M14.4617 10.7693H12.9893V12.1873H14.4617V10.7693Z" fill="#CCCCCC"/>
<path d="M12.9881 10.7693H10.3564V17.2543H12.9881V10.7693Z" fill="#92E3A9" stroke="#263238" stroke-linecap="round" stroke-linejoin="round"/>
<path d="M12.7402 10.9662H10.5259V13.8438H12.7402V10.9662Z" stroke="#263238" stroke-linecap="round" stroke-linejoin="round"/>
<path d="M12.7402 14.1681H10.5259V17.0467H12.7402V14.1681Z" stroke="#263238" stroke-linecap="round" stroke-linejoin="round"/>
<path d="M20.4882 10.7693H17.8564V17.2543H20.4882V10.7693Z" fill="#92E3A9" stroke="#263238" stroke-linecap="round" stroke-linejoin="round"/>
<path d="M20.2417 10.9662H18.0273V13.8438H20.2417V10.9662Z" stroke="#263238" stroke-linecap="round" stroke-linejoin="round"/>
<path d="M20.2417 14.1681H18.0273V17.0467H20.2417V14.1681Z" stroke="#263238" stroke-linecap="round" stroke-linejoin="round"/>
<path d="M62.175 18.7475H49.7275V8.90977L55.8925 2.30219L62.175 8.90977V18.7475Z" fill="white" stroke="#263238" stroke-linecap="round" stroke-linejoin="round"/>
<path d="M60.0016 8.49295L56.0126 3.98492C56.0081 3.97973 56.0024 3.97555 55.996 3.97268C55.9895 3.96981 55.9825 3.96832 55.9754 3.96832C55.9683 3.96832 55.9613 3.96981 55.9549 3.97268C55.9485 3.97555 55.9428 3.97973 55.9383 3.98492L51.9704 8.49295C51.9646 8.49979 51.961 8.50802 51.9598 8.51673C51.9587 8.52543 51.9602 8.53425 51.964 8.54221C51.9679 8.55017 51.974 8.55694 51.9817 8.56178C51.9894 8.56661 51.9983 8.56931 52.0075 8.56958H52.8955C52.9019 8.56942 52.9082 8.5705 52.9141 8.57275C52.9201 8.575 52.9255 8.57838 52.93 8.58269C52.9345 8.58699 52.9381 8.59212 52.9404 8.59777C52.9428 8.60342 52.9439 8.60947 52.9438 8.61556V9.62468C52.9441 9.63678 52.9493 9.6483 52.9583 9.65686C52.9672 9.66542 52.9793 9.67036 52.9921 9.67065H58.9848C58.9976 9.67065 59.0099 9.66581 59.019 9.65719C59.028 9.64857 59.0331 9.63687 59.0331 9.62468V8.61084C59.0331 8.59865 59.0382 8.58695 59.0473 8.57833C59.0563 8.56971 59.0686 8.56487 59.0814 8.56487H59.9694C59.9775 8.56368 59.9852 8.56054 59.9917 8.55574C59.9982 8.55094 60.0033 8.54465 60.0065 8.53744C60.0097 8.53024 60.011 8.52237 60.0101 8.51459C60.0092 8.5068 60.0063 8.49936 60.0016 8.49295Z" fill="#CCCCCC"/>
<path d="M55.9861 1L48.376 9.98187H52.0714V9.18849H50.1841L55.9861 2.58795L61.7869 9.18849H59.9429V9.98187H63.595L55.9861 1Z" fill="white" stroke="#263238" stroke-linecap="round" stroke-linejoin="round"/>
<path d="M52.072 9.98181H48.3877V10.5991H52.072V9.98181Z" fill="white" stroke="#263238" stroke-linecap="round" stroke-linejoin="round"/>
<path d="M63.6101 9.98181H59.9258V10.5991H63.6101V9.98181Z" fill="white" stroke="#263238" stroke-linecap="round" stroke-linejoin="round"/>
<path d="M58.1279 14.0502H56.6221V15.3204H58.1279V14.0502Z" fill="#CCCCCC"/>
<path d="M56.3082 10.7693H55.0859V12.1873H56.3082V10.7693Z" fill="#CCCCCC"/>
<path d="M56.3082 12.4846H55.0859V13.7549H56.3082V12.4846Z" fill="#CCCCCC"/>
<path d="M58.1279 12.4846H56.6221V13.7549H58.1279V12.4846Z" fill="#CCCCCC"/>
<path d="M56.3082 14.0502H55.0859V15.3204H56.3082V14.0502Z" fill="#CCCCCC"/>
<path d="M58.1279 10.7693H56.6221V12.1873H58.1279V10.7693Z" fill="#CCCCCC"/>
<path d="M56.3082 15.6169H55.0859V17.2443H56.3082V15.6169Z" fill="#CCCCCC"/>
<path d="M58.1279 15.6169H56.6221V17.2443H58.1279V15.6169Z" fill="#CCCCCC"/>
<path d="M54.7743 15.6169H53.3018V17.2443H54.7743V15.6169Z" fill="#CCCCCC"/>
<path d="M54.7743 14.0502H53.3018V15.3204H54.7743V14.0502Z" fill="#CCCCCC"/>
<path d="M54.7743 12.4846H53.3018V13.7549H54.7743V12.4846Z" fill="#CCCCCC"/>
<path d="M54.7743 10.7693H53.3018V12.1873H54.7743V10.7693Z" fill="#CCCCCC"/>
<path d="M53.3005 10.7693H50.6689V17.2543H53.3005V10.7693Z" fill="#92E3A9" stroke="#263238" stroke-linecap="round" stroke-linejoin="round"/>
<path d="M53.0541 10.9662H50.8398V13.8438H53.0541V10.9662Z" stroke="#263238" stroke-linecap="round" stroke-linejoin="round"/>
<path d="M53.0541 14.1681H50.8398V17.0467H53.0541V14.1681Z" stroke="#263238" stroke-linecap="round" stroke-linejoin="round"/>
<path d="M60.8002 10.7693H58.1685V17.2543H60.8002V10.7693Z" fill="#92E3A9" stroke="#263238" stroke-linecap="round" stroke-linejoin="round"/>
<path d="M60.5537 10.9662H58.3394V13.8438H60.5537V10.9662Z" stroke="#263238" stroke-linecap="round" stroke-linejoin="round"/>
<path d="M60.5537 14.1681H58.3394V17.0467H60.5537V14.1681Z" stroke="#263238" stroke-linecap="round" stroke-linejoin="round"/>
<path d="M32.5464 25.9993H31.3018V28.0526H32.5464V25.9993Z" fill="#CCCCCC"/>
<path d="M32.5464 28.4819H31.3018V30.3206H32.5464V28.4819Z" fill="#CCCCCC"/>
<path d="M32.5464 30.7488H31.3018V32.5875H32.5464V30.7488Z" fill="#CCCCCC"/>
<path d="M32.5464 33.0159H31.3018V35.3725H32.5464V33.0159Z" fill="#CCCCCC"/>
<path d="M30.9849 33.0159H29.4863V35.3725H30.9849V33.0159Z" fill="#CCCCCC"/>
<path d="M30.9849 30.7488H29.4863V32.5875H30.9849V30.7488Z" fill="#CCCCCC"/>
<path d="M30.9849 28.4819H29.4863V30.3206H30.9849V28.4819Z" fill="#CCCCCC"/>
<path d="M30.9849 25.9993H29.4863V28.0526H30.9849V25.9993Z" fill="#CCCCCC"/>
<path d="M42.875 25.9993H41.6304V28.0526H42.875V25.9993Z" fill="#CCCCCC"/>
<path d="M42.875 28.4819H41.6304V30.3206H42.875V28.4819Z" fill="#CCCCCC"/>
<path d="M42.875 30.7488H41.6304V32.5875H42.875V30.7488Z" fill="#CCCCCC"/>
<path d="M42.875 33.0159H41.6304V35.3725H42.875V33.0159Z" fill="#CCCCCC"/>
<path d="M41.3124 33.0159H39.814V35.3725H41.3124V33.0159Z" fill="#CCCCCC"/>
<path d="M41.3124 30.7488H39.814V32.5875H41.3124V30.7488Z" fill="#CCCCCC"/>
<path d="M41.3124 28.4819H39.814V30.3206H41.3124V28.4819Z" fill="#CCCCCC"/>
<path d="M41.3124 25.9993H39.814V28.0526H41.3124V25.9993Z" fill="#CCCCCC"/>
<path d="M39.4374 25.9001H32.979V37.6771H39.4374V25.9001Z" fill="#92E3A9" stroke="#263238" stroke-linecap="round" stroke-linejoin="round"/>
<path d="M38.6039 26.5945H33.9165V32.3451H38.6039V26.5945Z" stroke="#263238" stroke-linecap="round" stroke-linejoin="round"/>
<path d="M38.6039 34.5272H33.9165V36.9098H38.6039V34.5272Z" stroke="#263238" stroke-linecap="round" stroke-linejoin="round"/>
<path d="M38.6039 33.0394H33.9165V33.9312H38.6039V33.0394Z" stroke="#263238" stroke-linecap="round" stroke-linejoin="round"/>
<path d="M33.7296 31.6354H33.1426V33.5224H33.7296V31.6354Z" fill="#263238"/>
<path d="M30.399 24.4077L32.0622 23.909C34.5692 23.159 37.2537 23.1348 39.7752 23.8395L41.8037 24.4077H45.1141V20.6082L35.91 10.2341L26.8794 20.6082V24.4077H30.399Z" fill="white" stroke="#263238" stroke-linecap="round" stroke-linejoin="round"/>
<path d="M45.1132 37.5734H26.8784V38.9629H45.1132V37.5734Z" fill="#263238" stroke="#263238" stroke-linecap="round" stroke-linejoin="round"/>
<path d="M30.5713 37.7148V38.8033" stroke="#B0B0B0" stroke-linecap="round" stroke-linejoin="round"/>
<path d="M31.5151 37.7148V38.8033" stroke="#B0B0B0" stroke-linecap="round" stroke-linejoin="round"/>
<path d="M32.4585 37.7148V38.8033" stroke="#B0B0B0" stroke-linecap="round" stroke-linejoin="round"/>
<path d="M33.4014 37.7148V38.8033" stroke="#B0B0B0" stroke-linecap="round" stroke-linejoin="round"/>
<path d="M34.3447 37.7148V38.8033" stroke="#B0B0B0" stroke-linecap="round" stroke-linejoin="round"/>
<path d="M35.2886 37.7148V38.8033" stroke="#B0B0B0" stroke-linecap="round" stroke-linejoin="round"/>
<path d="M36.231 37.7148V38.8033" stroke="#B0B0B0" stroke-linecap="round" stroke-linejoin="round"/>
<path d="M37.1748 37.7148V38.8033" stroke="#B0B0B0" stroke-linecap="round" stroke-linejoin="round"/>
<path d="M38.1182 37.7148V38.8033" stroke="#B0B0B0" stroke-linecap="round" stroke-linejoin="round"/>
<path d="M39.0605 37.7148V38.8033" stroke="#B0B0B0" stroke-linecap="round" stroke-linejoin="round"/>
<path d="M40.0044 37.7148V38.8033" stroke="#B0B0B0" stroke-linecap="round" stroke-linejoin="round"/>
<path d="M40.9482 37.7148V38.8033" stroke="#B0B0B0" stroke-linecap="round" stroke-linejoin="round"/>
<path d="M41.8906 37.7148V38.8033" stroke="#B0B0B0" stroke-linecap="round" stroke-linejoin="round"/>
<path d="M35.9958 8.8949L24.8486 22.4001H30.2259V21.075H27.4964L35.9958 11.0982L44.4939 21.075H41.7805V22.4001H47.1417L35.9958 8.8949Z" fill="white" stroke="#263238" stroke-linecap="round" stroke-linejoin="round"/>
<path d="M30.2172 22.4001H24.8486V23.6219H30.2172V22.4001Z" fill="white" stroke="#263238" stroke-linecap="round" stroke-linejoin="round"/>
<path d="M27.3304 25.6149H25.7354V38.0838H27.3304V25.6149Z" fill="white" stroke="#263238" stroke-linecap="round" stroke-linejoin="round"/>
<path d="M27.4222 25.161H25.645V25.6307H27.4222V25.161Z" fill="white" stroke="#263238" stroke-linecap="round" stroke-linejoin="round"/>
<path d="M27.5448 23.6368H25.5225V25.1897H27.5448V23.6368Z" fill="white" stroke="#263238" stroke-linecap="round" stroke-linejoin="round"/>
<path d="M25.6437 37.4272H27.4209V36.9576H25.6437V37.4272Z" fill="white" stroke="#263238" stroke-linecap="round" stroke-linejoin="round"/>
<path d="M25.5211 38.9528H27.5435V37.3997H25.5211V38.9528Z" fill="white" stroke="#263238" stroke-linecap="round" stroke-linejoin="round"/>
<path d="M29.7069 25.6149H28.1118V38.0838H29.7069V25.6149Z" fill="white" stroke="#263238" stroke-linecap="round" stroke-linejoin="round"/>
<path d="M29.7986 25.161H28.0215V25.6307H29.7986V25.161Z" fill="white" stroke="#263238" stroke-linecap="round" stroke-linejoin="round"/>
<path d="M29.9213 23.6368H27.8989V25.1897H29.9213V23.6368Z" fill="white" stroke="#263238" stroke-linecap="round" stroke-linejoin="round"/>
<path d="M28.0202 37.4272H29.7974V36.9576H28.0202V37.4272Z" fill="white" stroke="#263238" stroke-linecap="round" stroke-linejoin="round"/>
<path d="M27.8975 38.9528H29.9199V37.3997H27.8975V38.9528Z" fill="white" stroke="#263238" stroke-linecap="round" stroke-linejoin="round"/>
<path d="M47.1401 22.4001H41.7715V23.6219H47.1401V22.4001Z" fill="white" stroke="#263238" stroke-linecap="round" stroke-linejoin="round"/>
<path d="M44.2533 25.6149H42.6582V38.0838H44.2533V25.6149Z" fill="white" stroke="#263238" stroke-linecap="round" stroke-linejoin="round"/>
<path d="M44.3441 25.161H42.5669V25.6307H44.3441V25.161Z" fill="white" stroke="#263238" stroke-linecap="round" stroke-linejoin="round"/>
<path d="M44.4667 23.6368H42.4443V25.1897H44.4667V23.6368Z" fill="white" stroke="#263238" stroke-linecap="round" stroke-linejoin="round"/>
<path d="M42.5666 37.4272H44.3438V36.9576H42.5666V37.4272Z" fill="white" stroke="#263238" stroke-linecap="round" stroke-linejoin="round"/>
<path d="M42.4445 38.9528H44.4668V37.3997H42.4445V38.9528Z" fill="white" stroke="#263238" stroke-linecap="round" stroke-linejoin="round"/>
<path d="M46.6303 25.6149H45.0352V38.0838H46.6303V25.6149Z" fill="white" stroke="#263238" stroke-linecap="round" stroke-linejoin="round"/>
<path d="M46.7205 25.161H44.9434V25.6307H46.7205V25.161Z" fill="white" stroke="#263238" stroke-linecap="round" stroke-linejoin="round"/>
<path d="M46.8431 23.6368H44.8208V25.1897H46.8431V23.6368Z" fill="white" stroke="#263238" stroke-linecap="round" stroke-linejoin="round"/>
<path d="M44.9435 37.4272H46.7207V36.9576H44.9435V37.4272Z" fill="white" stroke="#263238" stroke-linecap="round" stroke-linejoin="round"/>
<path d="M44.8209 38.9528H46.8433V37.3997H44.8209V38.9528Z" fill="white" stroke="#263238" stroke-linecap="round" stroke-linejoin="round"/>
<path d="M10.9582 30.7488H9.42627V32.5875H10.9582V30.7488Z" fill="#CCCCCC"/>
<path d="M9.10791 25.9993H7.86328V28.0526H9.10791V25.9993Z" fill="#CCCCCC"/>
<path d="M9.10791 28.4819H7.86328V30.3206H9.10791V28.4819Z" fill="#CCCCCC"/>
<path d="M10.9582 28.4819H9.42627V30.3206H10.9582V28.4819Z" fill="#CCCCCC"/>
<path d="M9.10791 30.7488H7.86328V32.5875H9.10791V30.7488Z" fill="#CCCCCC"/>
<path d="M10.9582 25.9993H9.42627V28.0526H10.9582V25.9993Z" fill="#CCCCCC"/>
<path d="M9.10791 33.0159H7.86328V35.3725H9.10791V33.0159Z" fill="#CCCCCC"/>
<path d="M10.9582 33.0159H9.42627V35.3725H10.9582V33.0159Z" fill="#CCCCCC"/>
<path d="M7.54535 33.0159H6.04688V35.3725H7.54535V33.0159Z" fill="#CCCCCC"/>
<path d="M7.54535 30.7488H6.04688V32.5875H7.54535V30.7488Z" fill="#CCCCCC"/>
<path d="M7.54535 28.4819H6.04688V30.3206H7.54535V28.4819Z" fill="#CCCCCC"/>
<path d="M7.54535 25.9993H6.04688V28.0526H7.54535V25.9993Z" fill="#CCCCCC"/>
<path d="M16.841 30.7488H15.3091V32.5875H16.841V30.7488Z" fill="#CCCCCC"/>
<path d="M14.9917 25.9993H13.7471V28.0526H14.9917V25.9993Z" fill="#CCCCCC"/>
<path d="M14.9917 28.4819H13.7471V30.3206H14.9917V28.4819Z" fill="#CCCCCC"/>
<path d="M16.841 28.4819H15.3091V30.3206H16.841V28.4819Z" fill="#CCCCCC"/>
<path d="M14.9917 30.7488H13.7471V32.5875H14.9917V30.7488Z" fill="#CCCCCC"/>
<path d="M16.841 25.9993H15.3091V28.0526H16.841V25.9993Z" fill="#CCCCCC"/>
<path d="M14.9917 33.0159H13.7471V35.3725H14.9917V33.0159Z" fill="#CCCCCC"/>
<path d="M16.841 33.0159H15.3091V35.3725H16.841V33.0159Z" fill="#CCCCCC"/>
<path d="M13.4291 33.0159H11.9307V35.3725H13.4291V33.0159Z" fill="#CCCCCC"/>
<path d="M13.4291 30.7488H11.9307V32.5875H13.4291V30.7488Z" fill="#CCCCCC"/>
<path d="M13.4291 28.4819H11.9307V30.3206H13.4291V28.4819Z" fill="#CCCCCC"/>
<path d="M13.4291 25.9993H11.9307V28.0526H13.4291V25.9993Z" fill="#CCCCCC"/>
<path d="M22.7248 30.7488H21.1929V32.5875H22.7248V30.7488Z" fill="#CCCCCC"/>
<path d="M20.8745 25.9993H19.6299V28.0526H20.8745V25.9993Z" fill="#CCCCCC"/>
<path d="M20.8745 28.4819H19.6299V30.3206H20.8745V28.4819Z" fill="#CCCCCC"/>
<path d="M22.7248 28.4819H21.1929V30.3206H22.7248V28.4819Z" fill="#CCCCCC"/>
<path d="M20.8745 30.7488H19.6299V32.5875H20.8745V30.7488Z" fill="#CCCCCC"/>
<path d="M22.7248 25.9993H21.1929V28.0526H22.7248V25.9993Z" fill="#CCCCCC"/>
<path d="M20.8745 33.0159H19.6299V35.3725H20.8745V33.0159Z" fill="#CCCCCC"/>
<path d="M22.7248 33.0159H21.1929V35.3725H22.7248V33.0159Z" fill="#CCCCCC"/>
<path d="M19.313 33.0159H17.8145V35.3725H19.313V33.0159Z" fill="#CCCCCC"/>
<path d="M19.313 30.7488H17.8145V32.5875H19.313V30.7488Z" fill="#CCCCCC"/>
<path d="M19.313 28.4819H17.8145V30.3206H19.313V28.4819Z" fill="#CCCCCC"/>
<path d="M19.313 25.9993H17.8145V28.0526H19.313V25.9993Z" fill="#CCCCCC"/>
<path d="M23.3959 25.0078H5.27148V36.1128H23.3959V25.0078Z" stroke="#263238" stroke-linecap="round" stroke-linejoin="round"/>
<path d="M54.7595 30.7488H53.2275V32.5875H54.7595V30.7488Z" fill="#CCCCCC"/>
<path d="M52.9102 25.9993H51.6655V28.0526H52.9102V25.9993Z" fill="#CCCCCC"/>
<path d="M52.9102 28.4819H51.6655V30.3206H52.9102V28.4819Z" fill="#CCCCCC"/>
<path d="M54.7595 28.4819H53.2275V30.3206H54.7595V28.4819Z" fill="#CCCCCC"/>
<path d="M52.9102 30.7488H51.6655V32.5875H52.9102V30.7488Z" fill="#CCCCCC"/>
<path d="M54.7595 25.9993H53.2275V28.0526H54.7595V25.9993Z" fill="#CCCCCC"/>
<path d="M52.9102 33.0159H51.6655V35.3725H52.9102V33.0159Z" fill="#CCCCCC"/>
<path d="M54.7595 33.0159H53.2275V35.3725H54.7595V33.0159Z" fill="#CCCCCC"/>
<path d="M51.3471 33.0159H49.8486V35.3725H51.3471V33.0159Z" fill="#CCCCCC"/>
<path d="M51.3471 30.7488H49.8486V32.5875H51.3471V30.7488Z" fill="#CCCCCC"/>
<path d="M51.3471 28.4819H49.8486V30.3206H51.3471V28.4819Z" fill="#CCCCCC"/>
<path d="M51.3471 25.9993H49.8486V28.0526H51.3471V25.9993Z" fill="#CCCCCC"/>
<path d="M60.6432 30.7488H59.1113V32.5875H60.6432V30.7488Z" fill="#CCCCCC"/>
<path d="M58.7925 25.9993H57.5479V28.0526H58.7925V25.9993Z" fill="#CCCCCC"/>
<path d="M58.7925 28.4819H57.5479V30.3206H58.7925V28.4819Z" fill="#CCCCCC"/>
<path d="M60.6432 28.4819H59.1113V30.3206H60.6432V28.4819Z" fill="#CCCCCC"/>
<path d="M58.7925 30.7488H57.5479V32.5875H58.7925V30.7488Z" fill="#CCCCCC"/>
<path d="M60.6432 25.9993H59.1113V28.0526H60.6432V25.9993Z" fill="#CCCCCC"/>
<path d="M58.7925 33.0159H57.5479V35.3725H58.7925V33.0159Z" fill="#CCCCCC"/>
<path d="M60.6432 33.0159H59.1113V35.3725H60.6432V33.0159Z" fill="#CCCCCC"/>
<path d="M57.231 33.0159H55.7324V35.3725H57.231V33.0159Z" fill="#CCCCCC"/>
<path d="M57.231 30.7488H55.7324V32.5875H57.231V30.7488Z" fill="#CCCCCC"/>
<path d="M57.231 28.4819H55.7324V30.3206H57.231V28.4819Z" fill="#CCCCCC"/>
<path d="M57.231 25.9993H55.7324V28.0526H57.231V25.9993Z" fill="#CCCCCC"/>
<path d="M66.5266 30.7488H64.9946V32.5875H66.5266V30.7488Z" fill="#CCCCCC"/>
<path d="M64.6763 25.9993H63.4316V28.0526H64.6763V25.9993Z" fill="#CCCCCC"/>
<path d="M64.6763 28.4819H63.4316V30.3206H64.6763V28.4819Z" fill="#CCCCCC"/>
<path d="M66.5266 28.4819H64.9946V30.3206H66.5266V28.4819Z" fill="#CCCCCC"/>
<path d="M64.6763 30.7488H63.4316V32.5875H64.6763V30.7488Z" fill="#CCCCCC"/>
<path d="M66.5266 25.9993H64.9946V28.0526H66.5266V25.9993Z" fill="#CCCCCC"/>
<path d="M64.6763 33.0159H63.4316V35.3725H64.6763V33.0159Z" fill="#CCCCCC"/>
<path d="M66.5266 33.0159H64.9946V35.3725H66.5266V33.0159Z" fill="#CCCCCC"/>
<path d="M63.1147 33.0159H61.6162V35.3725H63.1147V33.0159Z" fill="#CCCCCC"/>
<path d="M63.1147 30.7488H61.6162V32.5875H63.1147V30.7488Z" fill="#CCCCCC"/>
<path d="M63.1147 28.4819H61.6162V30.3206H63.1147V28.4819Z" fill="#CCCCCC"/>
<path d="M63.1147 25.9993H61.6162V28.0526H63.1147V25.9993Z" fill="#CCCCCC"/>
<path d="M67.1968 25.0078H49.0723V36.1128H67.1968V25.0078Z" stroke="#263238" stroke-linecap="round" stroke-linejoin="round"/>
<path d="M1 39.0399H71" stroke="#263238" stroke-linecap="round" stroke-linejoin="round"/>
</svg>
