<svg width="150" height="150" viewBox="0 0 150 150" fill="none" xmlns="http://www.w3.org/2000/svg">
<circle cx="75" cy="75" r="75" fill="#1F3A93"/>
<path d="M60.3752 84.5833L70.4585 94.6667L90.6252 74.5M60.3752 39.2083H50.2918C47.6176 39.2083 45.0528 40.2707 43.1618 42.1617C41.2708 44.0527 40.2085 46.6174 40.2085 49.2917V109.792C40.2085 112.466 41.2708 115.031 43.1618 116.922C45.0528 118.813 47.6176 119.875 50.2918 119.875H100.709C103.383 119.875 105.948 118.813 107.838 116.922C109.729 115.031 110.792 112.466 110.792 109.792V49.2917C110.792 46.6174 109.729 44.0527 107.838 42.1617C105.948 40.2707 103.383 39.2083 100.709 39.2083H90.6252H60.3752ZM60.3752 39.2083C60.3752 41.8826 61.4375 44.4473 63.3285 46.3383C65.2195 48.2293 67.7842 49.2917 70.4585 49.2917H80.5418C83.2161 49.2917 85.7808 48.2293 87.6718 46.3383C89.5628 44.4473 90.6252 41.8826 90.6252 39.2083H60.3752ZM60.3752 39.2083C60.3752 36.5341 61.4375 33.9693 63.3285 32.0783C65.2195 30.1873 67.7842 29.125 70.4585 29.125H80.5418C83.2161 29.125 85.7808 30.1873 87.6718 32.0783C89.5628 33.9693 90.6252 36.5341 90.6252 39.2083H60.3752Z" stroke="#FCFCFC" stroke-width="5" stroke-linecap="round" stroke-linejoin="round"/>
</svg>
