<svg width="150" height="150" viewBox="0 0 150 150" fill="none" xmlns="http://www.w3.org/2000/svg">
<circle cx="75" cy="75" r="75" fill="#1F3A93"/>
<path d="M30.4023 70.4583H40.2083C42.8826 70.4583 45.4473 71.5207 47.3383 73.4117C49.2293 75.3027 50.2917 77.8674 50.2917 80.5417V85.5833C50.2917 88.2576 51.354 90.8223 53.245 92.7133C55.136 94.6043 57.7007 95.6667 60.375 95.6667C63.0493 95.6667 65.614 96.729 67.505 98.62C69.396 100.511 70.4583 103.076 70.4583 105.75V120.598L30.4023 70.4583ZM55.3333 34.839V42.7292C55.3333 46.072 56.6613 49.2779 59.025 51.6417C61.3887 54.0054 64.5947 55.3333 67.9375 55.3333H70.4583C73.1326 55.3333 75.6973 56.3957 77.5883 58.2867C79.4793 60.1777 80.5417 62.7424 80.5417 65.4167C80.5417 68.0909 81.604 70.6557 83.495 72.5467C85.386 74.4376 87.9507 75.5 90.625 75.5C93.2993 75.5 95.864 74.4376 97.755 72.5467C99.646 70.6557 100.708 68.0909 100.708 65.4167C100.708 62.7424 101.771 60.1777 103.662 58.2867C105.553 56.3957 108.117 55.3333 110.792 55.3333H116.156L55.3333 34.839ZM90.625 118.294V105.75C90.625 103.076 91.6873 100.511 93.5783 98.62C95.4693 96.729 98.0341 95.6667 100.708 95.6667H116.156L90.625 118.294ZM120.875 75.5C120.875 81.4587 119.701 87.3591 117.421 92.8643C115.141 98.3694 111.798 103.372 107.585 107.585C103.372 111.798 98.3694 115.141 92.8643 117.421C87.3591 119.701 81.4587 120.875 75.5 120.875C69.5413 120.875 63.6409 119.701 58.1357 117.421C52.6306 115.141 47.6285 111.798 43.415 107.585C39.2016 103.372 35.8593 98.3694 33.579 92.8643C31.2987 87.3591 30.125 81.4587 30.125 75.5C30.125 63.4658 34.9056 51.9245 43.415 43.415C51.9245 34.9056 63.4658 30.125 75.5 30.125C87.5342 30.125 99.0755 34.9056 107.585 43.415C116.094 51.9245 120.875 63.4658 120.875 75.5Z" stroke="#FCFCFC" stroke-width="5" stroke-linecap="round" stroke-linejoin="round"/>
</svg>
