<svg width="150" height="150" viewBox="0 0 150 150" fill="none" xmlns="http://www.w3.org/2000/svg">
<circle cx="75" cy="75" r="75" fill="#1F3A93"/>
<path d="M85.5661 82.9594L84.9248 82.7236L79.493 72.2705C78.4728 70.306 76.9516 68.6632 75.092 67.5176C73.2325 66.3721 71.1045 65.7668 68.9357 65.7667H55.2581C52.7465 65.7666 50.2985 66.5779 48.261 68.0855C46.2236 69.5931 44.7001 71.7206 43.9064 74.1666L41.3174 82.1391C39.1483 83.0775 37.297 84.6518 35.9954 86.665C34.6939 88.6782 33.9997 91.0407 34 93.4568V98.9241C34 102.412 36.0244 105.408 38.9293 106.759C39.3055 108.971 40.4088 110.985 42.0554 112.464C43.702 113.942 45.7925 114.798 47.9788 114.887C50.165 114.976 52.315 114.293 54.0705 112.953C55.8261 111.612 57.0813 109.695 57.6271 107.52H77.3729C77.9187 109.695 79.1739 111.612 80.9295 112.953C82.685 114.293 84.835 114.976 87.0212 114.887C89.2075 114.798 91.298 113.942 92.9446 112.464C94.5912 110.985 95.6945 108.971 96.0707 106.759C97.5397 106.078 98.7862 104.977 99.6605 103.587C100.535 102.198 101 100.578 101 98.9241V97.2588C101 94.7238 100.235 92.2509 98.8108 90.1797C97.3867 88.1085 95.3731 86.5404 93.0461 85.6906L85.8197 83.0528V82.9594H85.5661ZM55.2581 70.6789H60.3214V82.9594H46.0935L48.4433 75.7188C48.9197 74.2506 49.8344 72.9737 51.0576 72.069C52.2808 71.1644 53.7505 70.678 55.2581 70.6789ZM65.1071 70.6789H68.9357C70.2371 70.6784 71.5142 71.0411 72.6302 71.7281C73.7463 72.4151 74.6595 73.4006 75.272 74.5792L79.627 82.9594H65.1071V70.6789ZM84.7429 87.8716L91.4429 90.3179C92.8389 90.8279 94.0469 91.7689 94.9012 93.0116C95.7555 94.2543 96.2141 95.7379 96.2143 97.2588V98.9241C96.2143 99.7837 95.9271 100.575 95.4486 101.203C94.6647 99.3147 93.3241 97.7256 91.6151 96.6592C89.9061 95.5928 87.9146 95.1027 85.9203 95.2577C83.926 95.4127 82.0291 96.205 80.4961 97.5234C78.963 98.8418 77.8708 100.62 77.3729 102.608H57.6271C57.1292 100.62 56.037 98.8418 54.5039 97.5234C52.9709 96.205 51.074 95.4127 49.0797 95.2577C47.0854 95.1027 45.0939 95.5928 43.3849 96.6592C41.6759 97.7256 40.3353 99.3147 39.5514 101.203C39.0534 100.554 38.7836 99.7507 38.7857 98.9241V93.4568C38.7857 91.2463 39.7429 89.2323 41.2743 87.8716H84.7429ZM43.5714 105.064C43.5714 103.762 44.0756 102.512 44.9731 101.591C45.8706 100.67 47.0879 100.152 48.3571 100.152C49.6264 100.152 50.8437 100.67 51.7412 101.591C52.6386 102.512 53.1429 103.762 53.1429 105.064C53.1429 106.367 52.6386 107.617 51.7412 108.538C50.8437 109.459 49.6264 109.977 48.3571 109.977C47.0879 109.977 45.8706 109.459 44.9731 108.538C44.0756 107.617 43.5714 106.367 43.5714 105.064ZM86.6429 100.152C87.9121 100.152 89.1294 100.67 90.0269 101.591C90.9244 102.512 91.4286 103.762 91.4286 105.064C91.4286 106.367 90.9244 107.617 90.0269 108.538C89.1294 109.459 87.9121 109.977 86.6429 109.977C85.3736 109.977 84.1563 109.459 83.2588 108.538C82.3614 107.617 81.8571 106.367 81.8571 105.064C81.8571 103.762 82.3614 102.512 83.2588 101.591C84.1563 100.67 85.3736 100.152 86.6429 100.152Z" fill="#FCFCFC"/>
<path d="M111.316 36H92.8945C90.8626 36 89.2102 37.6961 89.2102 39.7816V50.3438L80.5394 59.2439C80.2818 59.5083 80.1064 59.8452 80.0354 60.2119C79.9643 60.5786 80.0008 60.9587 80.1402 61.3042C80.2796 61.6496 80.5156 61.9449 80.8185 62.1527C81.1214 62.3605 81.4775 62.4714 81.8417 62.4715V71.9256C81.8417 72.4271 82.0358 72.908 82.3813 73.2626C82.7267 73.6172 83.1953 73.8164 83.6839 73.8164H113.158C113.646 73.8164 114.115 73.6172 114.46 73.2626C114.806 72.908 115 72.4271 115 71.9256V39.7816C115 37.6961 113.348 36 111.316 36ZM96.5787 70.0348H85.526V59.4726L91.0524 53.8002L96.5787 59.4726V70.0348ZM111.316 70.0348H100.263V62.4715C100.628 62.4723 100.984 62.3619 101.288 62.1543C101.591 61.9467 101.828 61.6512 101.967 61.3054C102.107 60.9595 102.143 60.579 102.072 60.2119C102 59.8449 101.824 59.5079 101.565 59.2439L92.8945 50.3438V39.7816H111.316V70.0348Z" fill="#FCFCFC"/>
<path d="M96.5789 43.5632H100.263V47.3449H96.5789V43.5632ZM103.947 43.5632H107.632V47.3449H103.947V43.5632ZM103.947 51.1851H107.632V54.9082H103.947V51.1851ZM103.947 58.6898H107.632V62.4715H103.947V58.6898ZM89.2104 60.5807H92.8947V64.3623H89.2104V60.5807Z" fill="#FCFCFC"/>
</svg>
