<svg width="30" height="30" viewBox="0 0 30 30" fill="none" xmlns="http://www.w3.org/2000/svg">
<path d="M19.005 10.095C18.827 10.095 18.653 10.1478 18.505 10.2467C18.357 10.3456 18.2416 10.4861 18.1735 10.6506C18.1054 10.815 18.0876 10.996 18.1223 11.1706C18.157 11.3452 18.2427 11.5055 18.3686 11.6314C18.4945 11.7573 18.6548 11.843 18.8294 11.8777C19.004 11.9124 19.185 11.8946 19.3494 11.8265C19.5139 11.7584 19.6544 11.643 19.7533 11.495C19.8522 11.347 19.905 11.173 19.905 10.995C19.905 10.7563 19.8102 10.5274 19.6414 10.3586C19.4726 10.1898 19.2437 10.095 19.005 10.095ZM22.455 11.91C22.4404 11.2877 22.3239 10.6721 22.11 10.0875C21.9193 9.58735 21.6225 9.13446 21.24 8.76C20.8686 8.37557 20.4147 8.08063 19.9125 7.8975C19.3295 7.67712 18.7131 7.55791 18.09 7.545C17.295 7.5 17.04 7.5 15 7.5C12.96 7.5 12.705 7.5 11.91 7.545C11.2869 7.55791 10.6705 7.67712 10.0875 7.8975C9.58626 8.08249 9.1327 8.37717 8.76 8.76C8.37557 9.13138 8.08063 9.58533 7.8975 10.0875C7.67712 10.6705 7.55791 11.2869 7.545 11.91C7.5 12.705 7.5 12.96 7.5 15C7.5 17.04 7.5 17.295 7.545 18.09C7.55791 18.7131 7.67712 19.3295 7.8975 19.9125C8.08063 20.4147 8.37557 20.8686 8.76 21.24C9.1327 21.6228 9.58626 21.9175 10.0875 22.1025C10.6705 22.3229 11.2869 22.4421 11.91 22.455C12.705 22.5 12.96 22.5 15 22.5C17.04 22.5 17.295 22.5 18.09 22.455C18.7131 22.4421 19.3295 22.3229 19.9125 22.1025C20.4147 21.9194 20.8686 21.6244 21.24 21.24C21.6242 20.8669 21.9213 20.4136 22.11 19.9125C22.3239 19.3279 22.4404 18.7123 22.455 18.09C22.455 17.295 22.5 17.04 22.5 15C22.5 12.96 22.5 12.705 22.455 11.91ZM21.105 18C21.0995 18.4761 21.0133 18.9478 20.85 19.395C20.7302 19.7214 20.5379 20.0163 20.2875 20.2575C20.0442 20.5054 19.7499 20.6973 19.425 20.82C18.9778 20.9833 18.5061 21.0695 18.03 21.075C17.28 21.1125 17.0025 21.12 15.03 21.12C13.0575 21.12 12.78 21.12 12.03 21.075C11.5357 21.0843 11.0434 21.0081 10.575 20.85C10.2643 20.7211 9.98352 20.5296 9.75 20.2875C9.50107 20.0466 9.31113 19.7514 9.195 19.425C9.01189 18.9714 8.91033 18.489 8.895 18C8.895 17.25 8.85 16.9725 8.85 15C8.85 13.0275 8.85 12.75 8.895 12C8.89836 11.5133 8.98721 11.031 9.1575 10.575C9.28954 10.2584 9.4922 9.97624 9.75 9.75C9.97786 9.49213 10.2595 9.28732 10.575 9.15C11.0322 8.98503 11.514 8.89881 12 8.895C12.75 8.895 13.0275 8.85 15 8.85C16.9725 8.85 17.25 8.85 18 8.895C18.4761 8.90046 18.9478 8.98668 19.395 9.15C19.7358 9.27649 20.0417 9.48214 20.2875 9.75C20.5333 9.98038 20.7253 10.262 20.85 10.575C21.0167 11.0317 21.103 11.5138 21.105 12C21.1425 12.75 21.15 13.0275 21.15 15C21.15 16.9725 21.1425 17.25 21.105 18ZM15 11.1525C14.2394 11.154 13.4962 11.3809 12.8645 11.8046C12.2328 12.2282 11.7408 12.8296 11.4507 13.5328C11.1607 14.236 11.0855 15.0093 11.2348 15.7552C11.3841 16.501 11.7512 17.1859 12.2896 17.7232C12.8279 18.2606 13.5135 18.6263 14.2596 18.7741C15.0058 18.922 15.779 18.8453 16.4816 18.5539C17.1842 18.2625 17.7847 17.7693 18.2071 17.1368C18.6295 16.5042 18.855 15.7606 18.855 15C18.856 14.4938 18.7569 13.9925 18.5634 13.5247C18.37 13.057 18.0859 12.6321 17.7277 12.2745C17.3694 11.917 16.944 11.6338 16.4758 11.4412C16.0077 11.2486 15.5062 11.1505 15 11.1525ZM15 17.4975C14.506 17.4975 14.0232 17.351 13.6125 17.0766C13.2018 16.8022 12.8816 16.4121 12.6926 15.9558C12.5036 15.4994 12.4541 14.9972 12.5505 14.5128C12.6469 14.0283 12.8847 13.5833 13.234 13.234C13.5833 12.8847 14.0283 12.6469 14.5128 12.5505C14.9972 12.4541 15.4994 12.5036 15.9558 12.6926C16.4121 12.8816 16.8022 13.2018 17.0766 13.6125C17.351 14.0232 17.4975 14.506 17.4975 15C17.4975 15.328 17.4329 15.6527 17.3074 15.9558C17.1819 16.2588 16.9979 16.5341 16.766 16.766C16.5341 16.9979 16.2588 17.1819 15.9558 17.3074C15.6527 17.4329 15.328 17.4975 15 17.4975Z" fill="url(#paint0_linear)"/>
<circle cx="15" cy="15" r="14.5" stroke="#1F3A93"/>
<defs>
<linearGradient id="paint0_linear" x1="15" y1="7.5" x2="15" y2="22.5" gradientUnits="userSpaceOnUse">
<stop offset="0.00520833" stop-color="#4C5FD7"/>
<stop offset="0.9996" stop-color="#DAAD41" stop-opacity="0.198711"/>
<stop offset="0.9997" stop-color="#FDC01B" stop-opacity="0"/>
<stop offset="0.9998" stop-color="#F46F30" stop-opacity="0"/>
<stop offset="0.9999" stop-color="#7232BD" stop-opacity="0"/>
</linearGradient>
</defs>
</svg>
