<svg width="15" height="16" viewBox="0 0 15 16" fill="none" xmlns="http://www.w3.org/2000/svg">
<path d="M11.3431 11.3429L8.12966 14.5563C7.98913 14.6969 7.82225 14.8085 7.63856 14.8847C7.45488 14.9608 7.25799 15 7.05915 15C6.86031 15 6.66342 14.9608 6.47973 14.8847C6.29605 14.8085 6.12917 14.6969 5.98864 14.5563L2.77446 11.3429C1.92716 10.4955 1.35015 9.41594 1.1164 8.24066C0.882644 7.06538 1.00265 5.84718 1.46123 4.74011C1.91981 3.63303 2.69638 2.6868 3.69273 2.02106C4.68908 1.35533 5.86047 1 7.05877 1C8.25707 1 9.42846 1.35533 10.4248 2.02106C11.4212 2.6868 12.1977 3.63303 12.6563 4.74011C13.1149 5.84718 13.2349 7.06538 13.0011 8.24066C12.7674 9.41594 12.1904 10.4955 11.3431 11.3429V11.3429Z" stroke="#1F3A93" stroke-width="2" stroke-linecap="round" stroke-linejoin="round"/>
<path d="M9.3307 7.05866C9.3307 7.66124 9.09132 8.23914 8.66523 8.66523C8.23914 9.09132 7.66124 9.3307 7.05866 9.3307C6.45608 9.3307 5.87818 9.09132 5.45209 8.66523C5.026 8.23914 4.78662 7.66124 4.78662 7.05866C4.78662 6.45608 5.026 5.87817 5.45209 5.45209C5.87818 5.026 6.45608 4.78662 7.05866 4.78662C7.66124 4.78662 8.23914 5.026 8.66523 5.45209C9.09132 5.87817 9.3307 6.45608 9.3307 7.05866V7.05866Z" stroke="#1F3A93" stroke-width="2" stroke-linecap="round" stroke-linejoin="round"/>
</svg>
