<svg width="60" height="38" viewBox="0 0 60 38" fill="none" xmlns="http://www.w3.org/2000/svg">
<path d="M53.104 36.9409C56.9127 36.7701 59.8519 33.7495 59.6689 30.1942C59.486 26.6389 56.2502 23.8952 52.4416 24.066C48.6329 24.2368 45.6937 27.2573 45.8767 30.8127C46.0596 34.368 49.2954 37.1117 53.104 36.9409Z" fill="#263238"/>
<path d="M45.8713 30.3945C45.8713 30.3945 45.8713 30.4056 45.8713 30.4119C45.856 32.1144 46.563 33.7534 47.8378 34.9709C49.1127 36.1885 50.8519 36.8857 52.6755 36.9102C54.4992 36.9348 56.2592 36.2847 57.5712 35.102C58.8832 33.9193 59.6405 32.3001 59.6778 30.5979C59.6778 30.5979 59.6778 30.5868 59.6778 30.5805L45.8713 30.3945Z" fill="#263238"/>
<path d="M47.9263 30.4386C47.9124 31.3335 48.183 32.2122 48.7041 32.9635C49.2251 33.7148 49.9732 34.305 50.8535 34.6595C51.7339 35.0139 52.7071 35.1167 53.6501 34.9548C54.5931 34.793 55.4634 34.3737 56.1511 33.75C56.8388 33.1264 57.3129 32.3264 57.5136 31.4512C57.7142 30.576 57.6322 29.6649 57.2781 28.8331C56.924 28.0014 56.3137 27.2864 55.5242 26.7785C54.7348 26.2706 53.8017 25.9926 52.8431 25.9797C51.5577 25.9625 50.3176 26.4225 49.3955 27.2587C48.4735 28.0949 47.945 29.2387 47.9263 30.4386Z" fill="#FAFAFA"/>
<path d="M52.843 25.9797C51.5576 25.9625 50.3175 26.4225 49.3955 27.2587C48.4734 28.0949 47.9449 29.2387 47.9263 30.4386L57.6197 30.5695C57.6382 29.3696 57.1453 28.2119 56.2496 27.3512C55.3538 26.4905 54.1284 25.9971 52.843 25.9797Z" fill="#E0E0E0"/>
<path d="M49.8206 30.4638C49.812 31.009 49.9768 31.5444 50.2941 32.0022C50.6115 32.46 51.0671 32.8196 51.6034 33.0357C52.1397 33.2517 52.7326 33.3144 53.3071 33.2159C53.8816 33.1173 54.4119 32.8619 54.8309 32.482C55.2499 32.1021 55.5388 31.6148 55.6611 31.0816C55.7833 30.5484 55.7335 29.9933 55.5178 29.4866C55.3021 28.9799 54.9303 28.5442 54.4494 28.2348C53.9684 27.9253 53.4 27.7559 52.8159 27.7481C52.033 27.7376 51.2776 28.0177 50.7159 28.527C50.1542 29.0363 49.8322 29.733 49.8206 30.4638Z" fill="#263238"/>
<path d="M49.4966 21.0542C49.4966 21.0542 56.5644 19.0587 59.4871 26.2271L44.6963 30.5048L49.4966 21.0542Z" fill="#FF725E"/>
<path d="M10.5079 36.9415C14.3165 36.7707 17.2557 33.7501 17.0727 30.1948C16.8898 26.6395 13.654 23.8958 9.84536 24.0665C6.03673 24.2373 3.09752 27.2579 3.28046 30.8132C3.46341 34.3685 6.69922 37.1122 10.5079 36.9415Z" fill="#263238"/>
<path d="M3.27368 30.3945C3.27368 30.3945 3.27368 30.4056 3.27368 30.4119C3.25836 32.1144 3.96532 33.7534 5.24018 34.9709C6.51504 36.1885 8.25421 36.8857 10.0779 36.9102C11.9016 36.9348 13.6616 36.2847 14.9735 35.102C16.2855 33.9193 17.0428 32.3001 17.0801 30.5979V30.5774L3.27368 30.3945Z" fill="#263238"/>
<path d="M5.33498 30.4386C5.32106 31.3335 5.59173 32.2122 6.11278 32.9635C6.63383 33.7148 7.38184 34.305 8.26223 34.6595C9.14262 35.0139 10.1158 35.1167 11.0588 34.9548C12.0018 34.793 12.8721 34.3737 13.5598 33.75C14.2475 33.1264 14.7216 32.3264 14.9222 31.4512C15.1229 30.576 15.0409 29.6649 14.6868 28.8331C14.3327 28.0014 13.7224 27.2864 12.9329 26.7785C12.1435 26.2706 11.2104 25.9926 10.2517 25.9797C8.96635 25.9625 7.72624 26.4225 6.80419 27.2587C5.88214 28.0949 5.35366 29.2387 5.33498 30.4386Z" fill="#FAFAFA"/>
<path d="M7.22298 30.4638C7.21436 31.009 7.37913 31.5444 7.69646 32.0022C8.0138 32.46 8.46943 32.8196 9.00574 33.0357C9.54205 33.2517 10.135 33.3144 10.7094 33.2159C11.2839 33.1173 11.8142 32.8619 12.2332 32.482C12.6522 32.1021 12.9411 31.6148 13.0634 31.0816C13.1857 30.5484 13.1358 29.9933 12.9201 29.4866C12.7045 28.9799 12.3326 28.5442 11.8517 28.2348C11.3708 27.9253 10.8023 27.7559 10.2183 27.7481C9.43534 27.7376 8.67997 28.0177 8.11827 28.527C7.55657 29.0363 7.23454 29.733 7.22298 30.4638Z" fill="#263238"/>
<path d="M19.996 27.9168C19.9571 27.9357 16.3624 27.3983 16.3624 27.3983C16.1681 27.6351 15.9207 27.8294 15.6375 27.9677C15.3543 28.106 15.0422 28.1849 14.7229 28.1989C13.1696 28.2683 11.6516 28.3329 10.333 28.3881C9.74378 28.4126 9.18904 28.6542 8.79028 29.0598C8.39152 29.4654 8.18124 30.0021 8.2055 30.5521C8.22921 31.0742 8.46236 31.5689 8.85866 31.938C9.25496 32.307 9.78543 32.5235 10.3448 32.5444L17.9985 32.8265C19.2564 32.8722 20.928 32.1598 21.7131 31.2409L19.996 27.9168Z" fill="#455A64"/>
<path d="M1.21187 25.0608C1.21187 25.0608 0.884313 18.7798 7.20757 17.4716V16.6662H29.3567V18.5986C29.3567 18.5986 26.1064 22.2537 27.1617 25.2878C28.217 28.3219 28.5547 28.6324 28.5547 28.6324H41.1607C42.1554 27.3273 42.7099 25.7746 42.7529 24.1734C42.8204 21.5097 41.6351 16.9562 40.7487 14.0451C39.9484 11.3893 39.4418 9.17635 39.4418 9.17635L43.224 7.99896C43.224 7.99896 50.2226 16.5496 50.5079 17.0224C50.7933 17.4953 51.7659 18.6238 51.5379 21.0794C51.31 23.5351 45.0137 31.1101 43.3624 31.9644C41.7111 32.8186 40.2185 32.8722 38.731 33.085C37.441 33.271 27.8979 33.148 25.4007 33.1118C24.5329 33.1067 23.6821 32.8864 22.9355 32.4735C22.1892 32.051 21.6286 31.3512 21.009 30.2038L19.6869 27.8017L1.21187 25.0608Z" fill="#FF725E"/>
<path d="M2.90714 24.629L0.117828 28.708C0.0350306 28.8211 -0.00607626 28.9562 0.00072674 29.0931C0.00752974 29.2299 0.061869 29.3609 0.15553 29.4663C0.249192 29.5717 0.377083 29.6458 0.519855 29.6773C0.662626 29.7089 0.812517 29.6962 0.946857 29.6411C1.29396 29.4963 1.61114 29.2957 1.88394 29.0485C3.15872 27.9152 5.42969 24.93 5.42969 24.93L2.90714 24.629Z" fill="#455A64"/>
<path d="M22.9137 25.3634C22.9137 25.3634 22.9137 25.3429 22.9306 25.3035L22.9863 25.1317C23.0535 24.9112 23.1026 24.6862 23.1332 24.4587C23.2267 23.6168 23.0775 22.7668 22.701 21.9968C22.4478 21.4654 22.1001 20.9778 21.6727 20.5546C21.1818 20.0713 20.6119 19.6638 19.9843 19.3473C19.2886 18.9966 18.5442 18.7378 17.7724 18.5781C16.9402 18.4105 16.091 18.3286 15.2397 18.3338C14.3922 18.3395 13.5461 18.398 12.707 18.5087C11.8898 18.6112 11.1064 18.7373 10.3668 18.8949C9.05386 19.1552 7.78837 19.5921 6.61 20.1921C5.81867 20.602 5.09571 21.1176 4.46398 21.7225C4.2411 21.9369 4.0807 22.115 3.97433 22.2363L3.85445 22.3766C3.84164 22.3933 3.82692 22.4086 3.81055 22.4223C3.99684 22.165 4.20702 21.9234 4.43865 21.7005C5.06496 21.084 5.78661 20.5586 6.57961 20.1416C7.76006 19.5309 9.03048 19.0858 10.3499 18.8208C11.0895 18.6632 11.8695 18.5324 12.6952 18.4284C13.541 18.3166 14.3939 18.2576 15.2481 18.2518C16.104 18.2465 16.958 18.3295 17.7943 18.4993C18.5738 18.6644 19.325 18.9297 20.0265 19.2874C20.663 19.6084 21.2404 20.0224 21.7369 20.5136C22.1674 20.944 22.5162 21.4397 22.7685 21.9794C23.1435 22.7598 23.2847 23.6204 23.1771 24.4698C23.1416 24.6982 23.0851 24.9234 23.0083 25.1428C22.9813 25.2153 22.961 25.2704 22.9441 25.313C22.9356 25.3306 22.9254 25.3475 22.9137 25.3634Z" fill="#263238"/>
<path d="M21.6388 23.9575C21.6287 23.9575 21.6743 23.8582 21.7216 23.6785C21.7848 23.4198 21.7934 23.1521 21.7469 22.8904C21.6812 22.5056 21.5416 22.1351 21.3349 21.7966C21.2179 21.594 21.0812 21.4019 20.9263 21.2228C20.7642 21.028 20.5803 20.8499 20.3776 20.6917C19.9825 20.388 19.5379 20.1454 19.0606 19.9729C18.6701 19.8299 18.265 19.7243 17.8517 19.6577C17.5722 19.6137 17.2904 19.5837 17.0074 19.5679C16.9035 19.5666 16.7997 19.5592 16.6968 19.5458C16.7236 19.542 16.751 19.542 16.7778 19.5458C16.8302 19.5458 16.9078 19.5458 17.0091 19.5458C17.2918 19.5497 17.5738 19.5713 17.8534 19.6104C18.2733 19.6667 18.6855 19.7655 19.0825 19.9052C19.5721 20.0772 20.0283 20.3227 20.4333 20.6318C20.64 20.7943 20.8279 20.9765 20.9938 21.1755C21.1491 21.3597 21.2864 21.5565 21.4041 21.7634C21.6131 22.1103 21.7495 22.4912 21.806 22.8857C21.8479 23.152 21.8301 23.4236 21.7536 23.6832C21.7337 23.7532 21.7065 23.8213 21.6726 23.8865C21.665 23.9115 21.6536 23.9354 21.6388 23.9575Z" fill="#F5F5F5"/>
<g opacity="0.4">
<path opacity="0.4" d="M17.3013 18.4504C18.4934 18.6537 19.6283 19.0828 20.636 19.7113C21.6491 20.3393 22.4294 21.2444 22.8698 22.3025C23.3122 23.3648 23.2463 24.7723 22.7803 25.6518L24.3455 25.7732C24.8723 24.1324 24.2999 22.1197 23.0336 20.8351C22.309 20.0861 21.4249 19.4865 20.4378 19.0748C19.4507 18.6631 18.3824 18.4483 17.3013 18.4441" fill="black"/>
</g>
<path d="M29.3468 17.4021C29.3468 17.4241 24.3675 17.4429 18.2283 17.4429C12.0891 17.4429 7.10986 17.4241 7.10986 17.4021C7.10986 17.3802 12.0874 17.3613 18.2283 17.3613C24.3692 17.3613 29.3468 17.3802 29.3468 17.4021Z" fill="#263238"/>
<path d="M29.3565 16.6731C29.5822 16.4059 29.7216 16.0841 29.7584 15.7454C29.7922 15.2263 29.5389 14.5763 28.9395 14.5763H21.2908C20.6957 14.5763 20.1249 14.7972 19.7041 15.1904C19.2833 15.5837 19.0469 16.117 19.0469 16.6731H29.3565Z" fill="#455A64"/>
<path d="M21.2235 16.6392C21.5326 16.3779 21.7235 16.0632 21.7738 15.7321C21.8201 15.2245 21.4732 14.5889 20.6524 14.5889H10.1783C9.36336 14.5889 8.58176 14.8049 8.00549 15.1894C7.42922 15.5739 7.10547 16.0954 7.10547 16.6392H21.2235Z" fill="#455A64"/>
<path d="M39.4418 9.17859L38.1113 6.58897C37.9337 6.23346 37.9045 5.82891 38.0294 5.45437C38.1543 5.07983 38.4243 4.76222 38.7867 4.56362L42.7647 2.34913C42.9722 2.23263 43.2098 2.17106 43.4519 2.17102H44.3114L44.649 7.40542L43.3253 7.88299L44.1695 9.15652L39.4418 9.17859Z" fill="#FF725E"/>
<path d="M44.3232 2.3667C44.3232 2.3667 45.6842 2.65829 45.8547 4.61588C46.0252 6.57347 44.6542 7.18503 44.6542 7.18503L44.3232 2.3667Z" fill="#EBEBEB"/>
<path d="M39.9065 5.57166C39.9065 5.57166 37.156 6.78848 36.82 6.99023C36.587 7.12894 36.3878 7.37167 36.5701 7.79882C36.8808 8.52544 38.1674 7.84138 38.1674 7.84138L40.7288 6.64663C40.7288 6.64663 41.7132 6.21317 41.3485 5.66939C40.9415 5.06098 39.9065 5.57166 39.9065 5.57166Z" fill="#263238"/>
<path d="M40.0378 1.76845C40.0378 2.74567 39.5566 3.5369 38.964 3.5369C38.3713 3.5369 37.8901 2.74882 37.8901 1.76845C37.8901 0.788079 38.3697 0 38.964 0C39.5583 0 40.0378 0.788079 40.0378 1.76845Z" fill="#263238"/>
<path d="M39.1396 2.98675L39.7306 4.89905C39.8385 4.84827 39.9246 4.7646 39.9746 4.66189C40.0247 4.55917 40.0357 4.44356 40.0058 4.3342C39.8573 3.67941 39.7728 3.21395 39.6107 2.63963C39.5905 2.58283 39.1396 2.98675 39.1396 2.98675Z" fill="#263238"/>
<g opacity="0.4">
<path opacity="0.4" d="M27.4538 26.0963C27.3964 25.9387 27.3356 25.7811 27.285 25.6124C27.2343 25.4438 27.1702 25.2972 27.1263 25.1396C27.0582 24.9032 27.0085 24.6624 26.9777 24.4193C25.9815 28.2021 27.5028 30.8705 30.1131 31.058C33.929 31.3323 38.5807 31.5309 40.4617 31.0707C43.8909 30.2306 45.1488 27.5606 45.4494 27.1208C45.7499 26.6811 48.4768 22.0267 46.8001 17.5457C45.1235 13.0647 42.216 8.30634 42.216 8.30634L39.4418 9.17637C39.4418 9.17637 39.9484 11.383 40.7538 14.0372C41.6402 16.9484 42.8255 21.5019 42.758 24.1655C42.715 25.7667 42.1605 27.3194 41.1658 28.6245H28.5615C28.5615 28.6245 28.2913 28.3723 27.4589 26.1026" fill="black"/>
</g>
<path d="M0.70865 24.0804L0.798138 23.182L23.8084 25.6566C24.1159 25.6904 24.4128 25.7825 24.6808 25.9272C24.9489 26.0719 25.1824 26.2663 25.3671 26.4983C25.5517 26.7303 25.6837 26.9951 25.7548 27.2765C25.8259 27.5578 25.8346 27.8497 25.7805 28.1343L25.6775 28.6781L1.87031 25.4485C1.52501 25.4044 1.21133 25.2375 0.99484 24.9825C0.778352 24.7275 0.67581 24.4043 0.70865 24.0804Z" fill="#FF725E"/>
<g opacity="0.6">
<path opacity="0.6" d="M0.70865 24.0804L0.798138 23.182L23.8084 25.6566C24.1159 25.6904 24.4128 25.7825 24.6808 25.9272C24.9489 26.0719 25.1824 26.2663 25.3671 26.4983C25.5517 26.7303 25.6837 26.9951 25.7548 27.2765C25.8259 27.5578 25.8346 27.8497 25.7805 28.1343L25.6775 28.6781L1.87031 25.4485C1.52501 25.4044 1.21133 25.2375 0.99484 24.9825C0.778352 24.7275 0.67581 24.4043 0.70865 24.0804Z" fill="black"/>
</g>
<g opacity="0.3">
<path opacity="0.3" d="M45.4492 30.0887C45.4492 30.0887 50.5146 24.8874 51.5597 20.7989C52.0849 20.796 52.6094 20.8324 53.1283 20.9076C53.1283 20.9076 50.133 28.5094 45.4492 30.0887Z" fill="black"/>
</g>
<path d="M51.4855 18.9674C51.4986 19.0102 51.5076 19.054 51.5125 19.0982C51.526 19.1849 51.553 19.3126 51.5699 19.4781C51.6193 19.9506 51.6063 20.427 51.5311 20.8966C51.4121 21.5901 51.1845 22.2635 50.8557 22.8952C50.4544 23.6643 50.0068 24.4115 49.515 25.1333C48.6324 26.4506 47.6411 27.7017 46.5501 28.8751C46.1381 29.3306 45.797 29.6931 45.5606 29.9422L45.2871 30.2275C45.256 30.2614 45.2228 30.2935 45.1875 30.3236C45.2126 30.286 45.2414 30.2506 45.2736 30.218L45.5353 29.9217L46.5028 28.8389C47.5766 27.6565 48.5585 26.404 49.4407 25.0908C49.9331 24.3713 50.384 23.6279 50.7915 22.8637C51.1161 22.2381 51.3435 21.5726 51.4669 20.8872C51.5445 20.4244 51.5666 19.9549 51.5328 19.4875C51.5209 19.322 51.499 19.1944 51.4922 19.1061C51.485 19.0602 51.4828 19.0137 51.4855 18.9674Z" fill="#263238"/>
<path d="M42.7293 30.0515C42.4393 29.8442 42.1677 29.6154 41.9172 29.3672C41.6468 29.1384 41.3961 28.8901 41.1675 28.6245C41.7284 29.0601 42.2507 29.5373 42.7293 30.0515Z" fill="#263238"/>
<path d="M27.6953 29.8935C27.7768 29.6502 27.9031 29.4222 28.0685 29.2195C28.2093 29.0014 28.3892 28.8076 28.6003 28.6465C28.6189 28.6639 28.3876 28.9228 28.1411 29.2653C27.8946 29.6078 27.719 29.9029 27.6953 29.8935Z" fill="#263238"/>
<path d="M17.9629 32.8943C18.2399 32.6585 18.4732 32.3816 18.6534 32.0747C18.8425 31.7397 18.9573 31.3725 18.9911 30.9951C19.0423 30.5349 18.9562 30.0706 18.7422 29.6533C18.5283 29.2361 18.1948 28.8822 17.7788 28.6308C17.4434 28.4181 17.0656 28.2707 16.6678 28.1974C16.2992 28.1352 15.9221 28.1304 15.5518 28.1832C15.5756 28.1736 15.6005 28.1668 15.6261 28.1627C15.6994 28.1448 15.7738 28.1311 15.8489 28.1217C16.1252 28.0872 16.4055 28.0936 16.6796 28.1406C17.0886 28.208 17.4783 28.3534 17.8244 28.5678C18.257 28.8243 18.6035 29.1893 18.8242 29.6211C19.0449 30.0529 19.1308 30.534 19.0722 31.0093C19.0334 31.3966 18.9093 31.7722 18.7075 32.1126C18.5748 32.3413 18.4038 32.5489 18.2009 32.7273C18.1479 32.7763 18.0915 32.8221 18.0321 32.8644C18.0104 32.877 17.9872 32.887 17.9629 32.8943Z" fill="#263238"/>
<path d="M9.55623 31.2487C9.4983 31 9.47055 30.7459 9.47349 30.4914C9.44438 30.2376 9.44438 29.9816 9.47349 29.7278C9.55781 30.2307 9.58385 30.7406 9.55116 31.2487H9.55623Z" fill="#263238"/>
<path d="M10.1711 31.2504C10.0447 30.7505 9.97508 30.2397 9.96338 29.7262C10.0403 29.9732 10.0896 30.227 10.1103 30.4835C10.1592 30.7365 10.1796 30.9935 10.1711 31.2504Z" fill="#263238"/>
<path d="M19.6616 16.6707C19.6616 16.6927 16.8638 16.7115 13.4143 16.7115C9.96476 16.7115 7.16699 16.6927 7.16699 16.6707C7.16699 16.6488 9.96476 16.6299 13.4143 16.6299C16.8638 16.6299 19.6616 16.6472 19.6616 16.6707Z" fill="#263238"/>
<path d="M5.01286 34.8803C4.9857 34.8589 4.96082 34.8352 4.93857 34.8094C4.89467 34.7621 4.82206 34.6943 4.74271 34.5982C4.5093 34.3305 4.30086 34.0447 4.11967 33.7439C3.5085 32.7479 3.18936 31.6191 3.19439 30.4714C3.19943 29.3236 3.52848 28.1973 4.14838 27.206C4.33146 26.9063 4.54219 26.622 4.77817 26.3565C4.85921 26.2603 4.93182 26.1989 4.9774 26.1453C5.02299 26.0917 5.05001 26.0744 5.0517 26.0775C5.03496 26.106 5.01455 26.1325 4.99091 26.1563C4.95039 26.2083 4.88116 26.2777 4.80518 26.377C3.93906 27.4069 3.41725 28.6522 3.30494 29.9574C3.19263 31.2626 3.4948 32.5697 4.1737 33.7155C4.34851 34.0167 4.54777 34.3049 4.76972 34.5777C4.84402 34.677 4.91156 34.7479 4.95208 34.7999C4.9926 34.8519 5.01624 34.8771 5.01286 34.8803Z" fill="#455A64"/>
<path d="M28.5883 25.6688C28.5976 25.7208 28.5902 25.7741 28.5669 25.8221C28.5437 25.87 28.5057 25.9105 28.4577 25.9384C28.4098 25.9662 28.3541 25.9801 28.2976 25.9784C28.2412 25.9767 28.1866 25.9595 28.1406 25.9288C28.0947 25.8981 28.0596 25.8555 28.0397 25.8062C28.0199 25.7569 28.0161 25.7032 28.029 25.652C28.0418 25.6007 28.0707 25.5542 28.112 25.5182C28.1533 25.4823 28.205 25.4585 28.2608 25.45C28.3352 25.4391 28.4114 25.4559 28.4727 25.4969C28.534 25.5378 28.5755 25.5996 28.5883 25.6688Z" fill="#E0E0E0"/>
<path d="M39.3371 27.1461C39.2805 27.1708 39.2356 27.2143 39.2113 27.2681C39.187 27.3218 39.1849 27.3821 39.2054 27.4372C39.2304 27.4906 39.2763 27.5331 39.3336 27.5562C39.391 27.5793 39.4556 27.5812 39.5144 27.5616C39.5755 27.5347 39.6235 27.4875 39.6489 27.4291C39.6742 27.3708 39.6751 27.3057 39.6512 27.2468C39.6194 27.193 39.5663 27.1528 39.5033 27.1349C39.4402 27.117 39.3721 27.1227 39.3135 27.1508" fill="#E0E0E0"/>
</svg>
