<svg width="15" height="15" viewBox="0 0 15 15" fill="none" xmlns="http://www.w3.org/2000/svg">
<path d="M0 0.9C0 0.661305 0.0948211 0.432387 0.263604 0.263604C0.432387 0.0948211 0.661305 0 0.9 0H2.8377C3.05073 9.80722e-05 3.25683 0.0757626 3.41932 0.213534C3.58181 0.351305 3.69016 0.542249 3.7251 0.7524L4.3911 4.7439C4.42292 4.934 4.39288 5.12929 4.30539 5.30103C4.2179 5.47277 4.07758 5.61188 3.9051 5.6979L2.5119 6.3936C3.0115 7.63168 3.75555 8.75635 4.6996 9.7004C5.64365 10.6444 6.76831 11.3885 8.0064 11.8881L8.703 10.4949C8.78897 10.3226 8.92794 10.1824 9.0995 10.0949C9.27105 10.0074 9.46614 9.97728 9.6561 10.0089L13.6476 10.6749C13.8577 10.7098 14.0487 10.8182 14.1865 10.9807C14.3242 11.1432 14.3999 11.3493 14.4 11.5623V13.5C14.4 13.7387 14.3052 13.9676 14.1364 14.1364C13.9676 14.3052 13.7387 14.4 13.5 14.4H11.7C5.238 14.4 0 9.162 0 2.7V0.9Z" fill="#1F3A93"/>
</svg>
