<svg width="30" height="30" viewBox="0 0 30 30" fill="none" xmlns="http://www.w3.org/2000/svg">
<path d="M23 9.77567C22.448 10.0768 21.855 10.2804 21.2325 10.3719C21.8679 9.90328 22.3558 9.16116 22.5856 8.27693C21.9815 8.71803 21.3206 9.02881 20.6314 9.19584C20.07 8.45992 19.2703 8 18.3851 8C16.6855 8 15.3076 9.69549 15.3076 11.7867C15.3076 12.0835 15.3348 12.3725 15.3873 12.6497C12.8296 12.4917 10.5621 10.9842 9.0442 8.69316C8.77936 9.25244 8.6276 9.90299 8.6276 10.5969C8.6276 11.9107 9.17094 13.0697 9.99664 13.7488C9.50794 13.7299 9.02999 13.5675 8.6027 13.2751C8.60252 13.2909 8.60252 13.3068 8.60252 13.3227C8.60252 15.1575 9.6633 16.688 11.0711 17.0359C10.6179 17.1875 10.1426 17.2097 9.68135 17.1008C10.0729 18.6052 11.2095 19.6999 12.5561 19.7306C11.5029 20.7462 10.1759 21.3516 8.73412 21.3516C8.48568 21.3516 8.24076 21.3336 8 21.2987C9.36189 22.3731 10.9795 23 12.7174 23C18.3779 23 21.4733 17.2298 21.4733 12.2258C21.4733 12.0616 21.4704 11.8983 21.4644 11.7359C22.0669 11.2 22.5869 10.5362 23 9.77567Z" fill="#55ACEE"/>
<circle cx="15" cy="15" r="14.5" stroke="#1F3A93"/>
</svg>
